<svg width="214" height="302" viewBox="0 0 214 302" fill="none" xmlns="http://www.w3.org/2000/svg">
<path fill-rule="evenodd" clip-rule="evenodd" d="M206.871 297.451C211.926 297.208 209.893 288.4 209.53 285.165C205.527 273.349 206.468 260.458 204.894 248.074C203.913 236.512 202.653 224.987 201.593 213.435C199.511 189.985 184.56 142.247 167.499 134.57C165.35 125.177 156.473 116.409 145.242 116.409C137.582 107.378 128.362 101.022 116.536 102.305C111.649 102.527 106.91 107.689 102.227 108.686C99.6056 109.046 76.3376 108.12 71.6767 110.877C68.4301 112.537 65.4992 115.605 66.4538 119.512C67.977 124.244 63.2436 119.123 53.3695 124.174C33.2349 136.219 45.2665 152.332 45.7996 152.831C33.2349 170.243 22.2526 184.37 17.1713 205.653C13.8781 221.453 14.2488 237.765 11.4896 253.647C10.5153 259.154 9.02074 264.472 7.40344 269.82C5.65063 276.819 4.79834 294.263 3.8322 294.418C2.07232 294.854 4.84931 298.453 6.71409 298.456C62.5 298.5 110.931 298.81 162.91 297.472C177.559 296.965 192.223 296.848 206.871 297.451Z" fill="#E3AB85"/>
<path fill-rule="evenodd" clip-rule="evenodd" d="M102.292 124.019C102.292 129.499 121.398 149.863 127.992 148.52C132.387 147.624 139.029 141.783 147.916 130.997V124.019L145.997 116.422C156.869 116.804 165.398 125.388 167.499 134.569C184.39 142.17 199.211 189.034 201.526 212.724L201.593 213.435C202.653 224.987 203.913 236.512 204.894 248.073C206.468 260.458 205.527 273.349 209.53 285.164L209.554 285.365C209.971 288.748 211.961 300.5 207 300.5C185.63 300.5 173 300.5 164.5 300.5C112 300.5 206.87 300.5 4.99995 301C3.13518 301.005 2.07216 294.854 3.83203 294.418C4.79817 294.262 5.65047 276.819 7.40328 269.82L7.73601 268.714C9.22425 263.738 10.5824 258.774 11.4894 253.647C14.2487 237.765 13.878 221.453 17.1712 205.652C22.2525 184.37 33.2347 170.243 45.7995 152.831C45.2663 152.332 33.2347 136.219 53.3693 124.174C63.2434 119.123 67.9768 124.244 66.4537 119.511C65.499 115.605 68.4299 112.537 71.6765 110.876C76.3374 108.119 99.6054 109.046 102.227 108.686C103.445 108.427 104.667 107.886 105.894 107.223L105.682 107.929C103.422 115.472 102.292 120.835 102.292 124.019Z" fill="#101010"/>
<path fill-rule="evenodd" clip-rule="evenodd" d="M50.2016 209.248C50.1127 208.714 50.7874 208.383 51.0984 208.871C54.654 214.453 56.3684 220.517 57.091 227.049C57.7293 232.814 57.5412 238.662 57.2233 244.443C56.8843 250.608 56.4887 256.772 56.0887 262.933L55.4742 272.382L53.932 296.071C53.8216 297.765 53.4354 299.306 51.9707 300.094C51.7852 300.248 51.5918 300.386 51.3666 300.506C50.5752 300.928 49.5256 300.715 49.0681 299.906L49.2515 300.026C49.4113 300.126 49.2319 299.986 48.713 299.607L48.2727 299.039C47.9528 298.56 47.7485 298.09 47.6663 297.52C47.5387 296.636 47.704 295.665 47.7621 294.776L48.773 279.243C49.5591 267.167 50.4771 255.095 51.1691 243.013C51.4914 237.382 51.7172 231.745 51.5644 226.104C51.4121 220.495 51.1251 214.79 50.2016 209.248ZM80.865 106.164L81.0623 106.131C88.1246 104.963 95.804 105.182 102.258 108.572C102.312 108.6 102.287 108.689 102.227 108.686L100.15 108.603C93.5732 108.347 87.0169 108.195 80.5503 109.734L79.8883 109.893C77.5595 110.459 75.1276 111.151 73.2571 112.683C71.4692 114.148 70.5789 116.407 69.7229 118.486L69.6084 118.761C68.7399 120.815 67.6406 122.763 65.737 124.047C63.2713 125.71 60.3059 125.506 57.4786 125.732C52.5006 126.131 48.4307 129.724 46.4058 134.121C45.1796 136.784 44.6567 139.769 44.5531 142.68C44.5 144.163 44.4924 145.703 44.6907 147.176C44.754 147.646 45.3384 149.362 45.6364 149.321C46.2986 149.229 46.9039 149.573 47.1103 150.1C48.7459 148.526 50.4286 146.998 52.1655 145.524C56.4949 141.852 61.1582 138.524 66.0692 135.664C69.8174 133.481 73.7709 131.318 77.8649 129.683C77.5405 129.676 77.2205 129.74 76.911 129.9C76.7755 129.971 76.6408 129.802 76.7478 129.69C78.0373 128.338 79.5818 128.146 81.139 128.506C81.4712 128.401 81.8037 128.299 82.1375 128.203C82.3037 128.154 82.3863 128.382 82.2508 128.47L81.8683 128.714C83.567 129.28 85.2348 130.394 86.5551 131.274C90.348 133.798 93.6865 136.885 97.0707 139.913L97.686 140.462C100.665 143.112 103.72 145.686 107.104 147.811C108.876 148.924 110.737 149.953 112.689 150.718C114.363 151.375 117.088 151.789 117.872 153.551C118.569 154.394 118.278 155.47 117.462 156.038C116.085 157.547 113.332 156.572 111.691 155.943C109.714 155.186 107.798 154.275 105.971 153.207C102.424 151.133 99.1529 148.554 96.1061 145.81C92.9241 142.945 89.9226 139.901 86.8277 136.946C85.4868 135.666 84.1768 134.355 82.8338 133.077L82.1592 132.44C81.4738 131.8 80.4972 130.802 79.4531 130.198C77.486 131.367 75.4886 132.487 73.5393 133.686C70.8183 135.36 68.1773 137.154 65.5771 139.007C60.5714 142.574 55.8278 146.57 51.4241 150.853C43.3475 158.707 36.4666 167.676 30.4555 177.173L29.999 177.897C26.5832 183.332 23.3529 188.943 21.0625 194.95C18.5424 201.559 17.3167 208.509 16.6509 215.525C15.9901 222.491 15.7672 229.492 15.0287 236.451C14.2713 243.588 12.779 250.568 11.0817 257.535L10.6769 259.186C9.14104 265.426 7.55584 271.665 6.76637 278.051C6.34491 281.463 6.0914 284.921 6.1487 288.36C6.20625 291.819 6.75198 295.201 7.19227 298.624C7.36101 299.935 6.0655 301.03 4.90629 301.203C3.57311 301.403 2.42776 300.556 2.01337 299.322C0.72152 295.477 0.486852 291.226 0.527402 287.19C0.568214 283.093 1.09327 279.022 1.83207 274.995C3.28507 267.074 5.52736 259.317 7.40313 251.491C9.05627 244.593 10.1658 237.683 10.7638 230.617C11.3846 223.285 11.7564 215.929 12.8889 208.651C14.0068 201.465 16.1102 194.602 19.2822 188.05C22.1704 182.084 25.7708 176.469 29.5453 171.026C34.1291 164.417 39.1633 158.129 44.7906 152.399C44.2852 152.377 43.7661 152.214 43.2895 151.918C41.8312 151.012 41.1521 149.24 40.9433 147.622C40.4546 143.836 40.5726 139.885 41.55 136.184C43.1267 130.213 47.2189 124.909 53.1497 122.757C54.6762 122.203 56.299 122 57.9168 121.96C59.452 121.922 61.1286 122.122 62.6099 121.637C64.9677 120.865 65.9783 118.099 66.8635 116.003L66.9043 115.907C68.0394 113.235 69.4019 110.945 71.8606 109.277C74.4837 107.497 77.7702 106.687 80.865 106.164ZM147.968 116.73C150.091 115.997 152.744 116.662 154.819 117.303C157.131 118.017 159.268 119.332 161.1 120.893C163.032 122.54 164.629 124.574 165.758 126.845L165.866 127.064C166.896 129.171 168.07 132.064 167.55 134.379C167.535 134.445 167.518 134.508 167.499 134.569C171.71 136.634 175.598 139.22 178.985 142.497C182.928 146.313 186.266 150.656 189.092 155.347C200.313 173.98 202.289 196.358 203.614 217.608L203.944 222.996C204.664 234.63 205.506 246.237 207.694 257.71L207.854 258.539C210.192 270.552 213.539 282.657 213.2 294.98C213.099 298.672 207.62 298.647 207.461 294.98C206.863 281.177 203.629 267.849 201.439 254.262C197.586 230.357 199.516 205.712 194.057 182.046C191.914 172.759 188.595 163.75 183.855 155.46C181.514 151.364 178.835 147.407 175.698 143.874C172.998 140.834 170.192 137.908 167.037 135.352C166.029 136.358 164.015 135.845 163.489 134.379C163.127 133.372 163.232 132.194 163 131.138C162.785 130.158 162.488 129.187 162.093 128.265C161.304 126.427 160.147 124.661 158.811 123.173C157.367 121.565 155.708 120.229 153.852 119.126C151.983 118.015 149.939 117.683 147.968 116.871C147.902 116.844 147.896 116.755 147.968 116.73ZM156.213 244.488C156.217 244.391 156.331 244.345 156.402 244.41C157.146 245.092 157.596 246.07 158.143 246.909C158.775 247.876 159.438 248.824 160.133 249.747C161.527 251.596 163.078 253.339 164.641 255.046C166.095 256.634 167.645 258.155 169.253 259.589C170.995 261.143 172.946 262.528 174.529 264.249C177.831 267.838 178.365 272.765 179.061 277.391L179.138 277.892C179.562 280.637 179.943 283.39 180.286 286.146C180.453 287.487 180.62 288.829 180.756 290.174L180.797 290.6C180.918 291.916 180.951 293.251 180.192 294.401C179.38 295.631 177.533 296.062 176.435 294.883C174.549 292.856 174.903 289.257 174.657 286.649C174.454 284.494 174.224 282.341 173.967 280.191L173.836 279.116C173.532 276.67 173.286 274.176 172.724 271.773C172.229 269.656 171.285 268.059 169.737 266.526C168.178 264.981 166.557 263.54 165.117 261.876C163.59 260.112 162.213 258.221 160.972 256.247C159.91 254.558 159.059 252.721 158.28 250.885L158.15 250.579C157.397 248.79 156.155 246.459 156.213 244.488ZM103.65 244.108C103.647 244.011 103.532 243.965 103.461 244.03C102.717 244.712 102.268 245.691 101.72 246.53C101.089 247.497 100.425 248.444 99.7301 249.367C98.3367 251.216 96.7856 252.959 95.2222 254.667C93.7681 256.254 92.2183 257.775 90.6107 259.209C88.8689 260.763 86.917 262.149 85.3345 263.869C82.0325 267.459 81.4989 272.386 80.8022 277.012L80.7259 277.512C80.3011 280.257 79.9204 283.01 79.5772 285.767C79.4103 287.108 79.2439 288.45 79.1078 289.794L79.0663 290.22C78.945 291.536 78.9123 292.871 79.6711 294.021C80.4834 295.251 82.3301 295.683 83.4281 294.503C85.3146 292.476 84.9609 288.877 85.2063 286.27C85.409 284.114 85.639 281.961 85.8965 279.811L86.0275 278.736C86.331 276.291 86.5774 273.796 87.1391 271.393C87.6344 269.277 88.578 267.679 90.1262 266.146C91.686 264.602 93.3067 263.16 94.7463 261.497C96.2734 259.733 97.6508 257.841 98.8919 255.867C99.9534 254.178 100.804 252.341 101.584 250.506L101.713 250.2C102.467 248.41 103.709 246.08 103.65 244.108ZM183.451 167.607C183.467 167.357 183.838 167.354 183.843 167.607C183.89 169.754 183.935 171.901 183.98 174.049C184.34 191.351 184.118 208.695 185.861 225.938C186.683 234.068 188.196 242.079 189.948 250.056C190.844 254.138 191.784 258.21 192.678 262.292C193.548 266.271 194.482 270.269 195.173 274.285C195.851 278.231 196.459 282.209 196.732 286.206L196.766 286.728C196.883 288.664 197.444 291.512 196.373 293.228C195.213 295.088 192.992 295.121 191.749 293.346C190.582 291.68 190.873 288.715 190.666 286.728C190.457 284.702 190.235 282.675 189.984 280.654C189.493 276.713 188.846 272.78 188.173 268.865C186.771 260.712 184.739 252.662 183.238 244.522C181.7 236.182 180.607 227.781 180.561 219.289C180.516 210.725 181.426 202.177 181.885 193.632C182.352 184.953 182.882 176.28 183.451 167.607ZM101.388 113.79C101.854 112.226 103.5 111.248 105.106 111.687C106.577 112.09 107.792 113.869 107.217 115.391C106.589 117.052 105.492 118.468 104.567 119.978C103.712 121.372 102.466 122.471 101.596 123.841L102.555 124.871C103.035 125.384 103.516 125.895 104.003 126.397L105.676 128.123C106.978 129.464 108.29 130.799 109.638 132.093C113.601 135.902 117.628 139.585 122.068 142.846C123.078 143.588 124.097 144.326 125.144 145.017L125.534 145.275C126.252 145.743 127.054 146.204 127.921 146.125C130.03 145.932 131.935 143.701 133.384 142.313L133.46 142.241C137.05 138.838 140.375 135.118 143.282 131.117C143.927 130.229 144.552 129.325 145.161 128.41C143.756 126.775 144.091 123.583 144.014 121.6C143.959 120.206 143.955 118.811 143.947 117.416L143.944 117.134C143.926 116.231 143.886 115.365 144.474 114.622C144.508 114.579 144.579 114.58 144.623 114.603C145.429 115.024 145.677 115.728 146.021 116.518L146.057 116.6C146.476 117.548 146.876 118.505 147.282 119.459C147.706 120.458 148.096 121.471 148.49 122.481C148.674 122.951 148.849 123.423 149.021 123.898C149.125 124.201 149.233 124.502 149.344 124.803L149.37 124.826C149.517 124.95 149.641 125.081 149.748 125.216C150.198 125.44 150.555 125.848 150.723 126.448C151.088 127.754 150.332 128.819 149.659 129.855C146.922 134.066 143.803 138.078 140.335 141.718C138.613 143.527 136.801 145.254 134.915 146.892L134.585 147.176C132.891 148.627 131.051 150.001 128.788 150.34C126.14 150.737 123.985 149.425 121.958 147.914L121.755 147.762C119.833 146.313 117.95 144.813 116.126 143.244C112.406 140.046 108.867 136.611 105.726 132.843C102.671 129.178 99.6515 125.079 97.7684 120.669C97.6535 120.4 97.9554 120.119 98.1919 120.344C99.1118 121.216 99.9968 122.135 100.871 123.067C100.896 121.696 100.642 120.313 100.783 118.934C100.955 117.257 100.906 115.405 101.388 113.79Z" fill="black"/>
<path d="M120.047 177.383C120.047 175.307 121.635 173.576 123.704 173.398L135.61 172.374C137.946 172.173 139.953 174.015 139.953 176.359L139.953 185.394L139.953 195.024C139.953 197.138 138.307 198.888 136.196 199.016L124.29 199.742C121.99 199.882 120.047 198.054 120.047 195.749L120.047 177.383Z" fill="#0085FF"/>
<path d="M121.942 190.064L138.002 189.143L138.002 194.603C138.002 196.193 136.761 197.507 135.174 197.598L125.114 198.175C123.392 198.274 121.942 196.904 121.942 195.18L121.942 190.064Z" fill="white"/>
<path fill-rule="evenodd" clip-rule="evenodd" d="M163.376 72.3817C162.865 67.8782 163.527 58.4648 163.571 57.8929C163.852 54.2775 162.161 40.0005 158.964 41.316C153.602 37.0634 146.461 36.1244 139.782 35.6758C125.911 34.7439 111.154 36.8832 100.443 46.2355C95.1461 51.0925 89.9891 58.1565 90.4037 65.5117C85.5909 72.4836 78.806 82.0472 84.8025 90.1979C86.8408 92.802 90.0804 93.7717 92.641 95.7439C97.7914 99.9058 101.023 105.879 106.222 110.016C119.997 122.417 143.386 125.007 156.919 110.902C167.385 100.687 165.693 85.4046 163.852 72.3817C162.614 63.6264 164.375 81.1677 163.376 72.3817Z" fill="#E3AB85"/>
<path fill-rule="evenodd" clip-rule="evenodd" d="M121.252 16.5774C124.962 15.8274 128.771 15.3607 132.56 15.5012L132.852 15.5126C135.702 15.6267 139.312 15.8792 141.799 17.5398C141.942 17.396 142.172 17.3222 142.381 17.4219C145.336 18.835 148.586 19.8567 151.697 20.8719C154.794 21.8822 158.008 22.5491 161.254 22.8179C162.475 22.9191 163.52 24.2403 162.747 25.4253C162.563 25.7077 162.384 25.9929 162.205 26.2788C162.504 26.2477 162.802 26.2155 163.101 26.1853C164.083 26.0862 165.064 27.1365 165.006 28.0946C164.97 28.6972 164.905 29.2927 164.809 29.881C165.183 29.8731 165.555 29.9293 165.914 30.0815C167.734 30.8512 167.607 33.0224 167.471 34.6743C167.282 36.9667 166.426 39.3948 164.837 41.1105C166.024 42.345 166.864 43.8193 167.365 45.5703C167.728 46.8488 167.93 48.2107 167.83 49.5417L167.799 49.9402C167.675 51.3845 167.43 52.9836 166.393 54.0227C165.86 54.5584 165.204 54.7536 164.579 54.6917C164.957 58.0203 165.199 61.3679 165.428 64.7036L165.535 66.2979C166.044 74.0074 166.426 81.7671 166.326 89.4893C166.233 96.706 164.81 103.711 160.392 109.57C156.368 114.906 150.591 118.839 144.055 120.335C140.533 121.142 136.937 121.199 133.373 120.685C131.645 120.435 129.905 120.051 128.265 119.446C126.45 118.775 125.145 117.787 123.923 116.306C123.346 115.604 123.624 114.108 124.774 114.249C126.514 114.46 128.103 114.715 129.771 115.231L130.01 115.306C131.671 115.839 133.392 116.237 135.129 116.406C138.687 116.751 142.299 116.404 145.707 115.323C151.256 113.561 156.035 109.635 159.099 104.701C162.735 98.8536 163.146 92.2155 163.094 85.4917C163.037 78.1135 162.798 70.731 162.407 63.3605L162.34 62.1322C162.133 58.3393 161.934 54.5441 161.758 50.7488C161.704 49.5584 161.62 48.3584 161.47 47.1703C160.099 46.3655 158.871 45.256 158.07 43.8869C156.461 44.5536 154.769 45.0346 153.212 45.4179C149.606 46.3065 145.862 46.5222 142.191 45.9657C141.201 46.3755 140.191 46.7357 139.166 47.0457C138.889 47.1688 138.612 47.2898 138.335 47.4084C135.863 48.4679 133.356 49.3655 130.746 50.0227L130.105 50.1828C128.732 50.5219 127.241 50.8559 125.779 50.9607C125.539 51.0536 125.28 51.1322 124.997 51.2012C123.667 51.525 122.286 51.6274 120.922 51.5131C119.593 51.4012 118.633 50.056 119.365 48.7965C119.9 47.8774 120.439 46.9607 120.984 46.0465C119.089 46.8369 117.134 47.4941 115.161 48.0512C113.169 48.6131 111.149 49.0869 109.127 49.5227C108.045 49.7536 106.959 49.9584 105.881 50.1893C105.108 50.3536 103.922 50.4393 103.292 50.9488C102.596 51.5084 102.399 52.8131 102.135 53.6179C101.788 54.6631 101.462 55.7131 101.165 56.775C100.574 58.8941 100.089 61.0441 99.7133 63.2155C99.3378 65.3893 99.0857 67.5846 98.9455 69.7869C98.8055 71.9869 98.867 74.2012 98.6415 76.3917C98.5201 77.5536 97.275 78.1512 96.3553 77.3393C96.2474 77.2441 96.1386 77.1478 96.0309 77.0504L95.8704 76.9036C95.0836 76.1893 94.3207 75.4322 93.6911 74.5798C93.5771 74.4227 93.4677 74.2584 93.3655 74.0917C93.3489 74.0917 93.3346 74.0869 93.318 74.075L93.1434 73.9434C91.2214 72.5101 88.0102 70.6415 86.136 73.0227C85.5388 73.7812 85.233 74.7471 84.9793 75.6789L84.534 77.3467C84.2459 78.4354 83.9749 79.5301 83.8163 80.6441C83.4574 83.1393 83.638 86.0155 85.3518 88.0155C86.0362 88.8155 86.9797 89.3869 88.0323 89.5369C88.6195 89.6179 89.1994 89.5179 89.7817 89.4441C90.3734 89.3703 90.9436 89.4893 91.5356 89.4322C92.4767 89.3393 92.8878 90.4679 92.5361 91.1774C92.346 91.5584 92.1224 91.8869 91.8683 92.1655C92.0724 92.3417 92.2676 92.5322 92.4553 92.7322C93.0114 92.9107 93.5103 93.2941 93.8836 93.8012C94.1855 94.2108 94.3421 94.656 94.3684 95.125C94.4015 95.2417 94.43 95.3608 94.4564 95.4822L94.9662 96.3112C95.0784 96.493 95.1901 96.6727 95.3022 96.8488C96.5998 98.8965 98.0402 100.63 99.8298 102.263C101.553 103.835 103.423 105.242 105.042 106.927L105.232 107.128C106.741 108.721 108.332 110.649 107.741 112.966C107.589 113.561 106.76 113.989 106.218 113.587C104.476 112.292 103.599 110.239 102.121 108.668C100.6 107.049 98.9146 105.594 97.3891 103.98C95.9462 102.456 94.8079 100.73 93.9502 98.8298C93.6077 99.2084 93.1089 99.4774 92.4173 99.5822C91.229 99.7608 90.1213 99.0631 89.6034 98.0322C89.2705 98.1798 88.9309 98.3131 88.5884 98.4179C86.787 98.9703 85.6536 96.9631 86.3333 95.4798C86.6967 94.6846 87.1506 93.9941 87.7141 93.4131C85.9528 93.1703 84.1609 92.2584 83.0035 91.1203C80.0996 88.2607 79.7003 83.9631 80.3539 80.1417C80.7008 78.1155 81.2995 76.0655 82.0769 74.1631C82.2121 73.8322 82.3573 73.4988 82.5163 73.1703C82.4284 73.1679 82.3381 73.1298 82.281 73.056C81.7558 72.3369 81.1167 71.7488 80.7267 70.9441C80.3679 70.206 79.9689 69.4584 79.6858 68.6893C79.1038 67.1155 78.8186 65.3393 78.6285 63.675C78.2363 60.2679 78.3882 56.8822 78.9089 53.4965C79.7951 47.7298 81.9359 42.2112 85.0899 37.3688C84.9182 37.2784 84.7536 37.1693 84.6002 37.0403L84.5245 36.9741L84.4014 36.8627C83.5014 36.0467 83.5791 34.5174 84.4014 33.691L84.6611 33.4302C84.9899 33.1029 85.2735 32.8436 85.8047 32.4872C85.8832 32.4346 85.9633 32.385 86.0443 32.3388C85.7662 31.8241 85.6698 31.2222 85.8634 30.5581C86.5384 28.2448 89.8608 28.3267 91.9667 29.3355C94.2964 27.2524 96.8798 25.4441 99.6798 23.9798C106.349 20.4941 113.889 18.0631 121.252 16.5774ZM86.7802 77.506C88.0255 77.0988 89.6796 77.9536 90.7989 78.4679C92.2177 79.1203 93.425 80.0845 94.5943 81.1036C95.1765 81.6131 95.2809 82.4465 95.1361 83.1584C95.1216 83.2298 95.1076 83.3036 95.0908 83.3774C94.9363 84.1369 94.0902 84.7345 93.3416 84.7131C91.7754 84.6703 91.0294 83.3155 90.1428 82.1679C90.0384 82.3536 89.9077 82.525 89.7459 82.6536L89.6366 82.7393C89.2687 83.02 88.8631 83.2443 88.377 83.2226C88.0324 83.206 87.7023 83.1179 87.3978 82.9584C86.6373 82.556 86.3025 81.5703 86.509 80.7679C86.6373 80.2631 86.932 79.8679 87.317 79.5941L87.1735 79.4957C86.8664 79.2816 86.5864 79.0559 86.3681 78.7229L86.3189 78.6441H86.3379C86.1002 78.2345 86.2549 77.6774 86.7802 77.506Z" fill="black"/>
<path fill-rule="evenodd" clip-rule="evenodd" d="M143.969 101.448C142.457 100.839 141.108 99.8247 140.122 98.5283C139.779 98.0777 139.69 97.6018 139.762 97.1665C139.843 96.6771 140.137 96.2335 140.537 95.936C140.939 95.6375 141.441 95.4903 141.927 95.5654C142.349 95.6306 142.769 95.8585 143.101 96.3311L143.171 96.4257C143.757 97.2081 144.521 97.8501 145.392 98.2638C146.231 98.6627 147.169 98.8488 148.14 98.7406C149.99 98.5345 151.265 97.5478 152.62 96.208C152.788 96.0388 152.956 95.8643 153.125 95.6871C153.232 95.5264 153.38 95.4231 153.544 95.3689C153.726 95.3087 153.933 95.3121 154.122 95.3772C154.304 95.44 154.467 95.5589 154.576 95.7172C154.68 95.8677 154.739 96.0535 154.72 96.2673C154.596 97.6558 153.86 98.8951 152.815 99.8681C151.653 100.949 150.114 101.696 148.665 101.959C147.069 102.247 145.442 102.041 143.969 101.448V101.448ZM149.418 80.0268C151.117 81.0451 153.705 83.4195 151.878 85.9439C149.727 88.1698 146.63 85.6177 145.105 84.4635C143.69 83.5689 142.1 85.8696 143.413 86.9141C154.439 94.9659 158.913 80.2931 150.277 78.8296C149.327 78.6683 148.973 79.7118 149.418 80.0268ZM129.66 70.6605C129.847 68.363 133.395 67.8413 133.748 70.1147C134.064 72.1512 133.692 74.022 132.762 75.8556C131.873 77.6072 129.639 76.79 129.471 75.195C129.244 73.0569 129.543 72.0896 129.66 70.6605ZM156.663 69.6433C157.158 69.0044 157.872 68.5683 158.728 68.8147C161.401 69.5852 160.613 73.3284 159.674 75.1504C159.164 76.1398 157.515 76.3907 156.77 75.5195C155.556 74.0988 154.974 71.2617 156.518 69.8623C156.56 69.79 156.606 69.717 156.663 69.6433ZM132.724 60.6074L133.146 60.5345C134.452 60.3117 136.077 60.0976 137.001 61.1334C137.491 61.6827 137.659 62.7036 137.001 63.2294C135.842 64.1545 134.561 63.796 133.172 63.8743C132.028 63.9391 130.928 64.1259 129.826 64.4367C127.407 65.1184 125.437 66.3629 123.372 67.7295C123.101 67.9087 122.824 67.5669 122.953 67.3169C124.145 65.0135 126.456 63.1214 128.77 61.968C130.006 61.3524 131.357 60.8417 132.724 60.6074ZM154.227 59.5756L154.55 59.6409C158.067 60.366 162.636 61.8145 164.302 65.2219C164.365 65.7037 164.298 65.8069 164.244 65.8744L164.226 65.8968C164.181 65.9545 164.145 66.0339 163.933 66.0995C163.874 66.0856 163.815 66.071 163.755 66.0555C162.992 65.8582 162.388 65.5863 161.803 65.3042L161.169 64.9962C160.433 64.6404 159.691 64.2976 158.905 64.0445C157.226 63.5046 155.5 63.1242 153.747 62.9211C153.367 62.8771 153.001 62.7506 152.712 62.5339C152.439 62.3281 152.229 62.0432 152.134 61.6645C152.01 61.1745 152.046 60.8034 152.312 60.3613C152.513 60.0293 152.799 59.7992 153.129 59.667C153.465 59.5323 153.847 59.5006 154.227 59.5756Z" fill="black"/>
</svg>
