<svg width="222" height="312" viewBox="0 0 222 312" fill="none" xmlns="http://www.w3.org/2000/svg">
<path fill-rule="evenodd" clip-rule="evenodd" d="M207.447 218.731C207.447 216.544 204.42 212.662 204.414 210.681C206.959 210.226 209.087 206.778 208.523 204.619C207.53 203.86 204.926 202.365 203.85 201.667C197.289 201.866 199.782 192.74 199.04 188.1C198.292 183.561 197.737 178.815 196.643 174.251C194.7 170.598 193.788 166.504 191.931 162.87C191.101 161.665 189.761 160.561 189.359 159.162C185.296 154.724 179.703 152.064 175.099 148.305C176.886 147.733 176.767 145.324 176.651 143.777C177.067 141.758 176.623 139.226 174.782 138.089C174.16 136.062 171.44 135.354 169.85 136.645C168.805 131.964 164.718 129.123 160.437 127.386C160.441 127.372 160.445 127.358 160.449 127.345C156.131 125.631 150.956 124.777 146.648 125.74C148.922 100.402 129.516 99.4722 119.667 101.602C114.629 102.691 107.07 106.081 105.353 110.795C104.383 113.457 101.602 122.039 101.205 124.777C93.6846 120.485 84.9657 114.826 78.4424 123.466C77.1361 124.972 75.6907 126.09 73.7361 126.608C67.6333 128.191 59.5333 128.244 56.0646 134.465C53.9913 138.319 55.8559 140.859 55.2989 144.714C27.8276 164.006 4.8703 235.075 10.0249 268.138C11.265 279.971 17.3191 300.914 32.2622 298.303C50.1821 298.303 155.526 297.507 181.002 298.303C191.86 301.143 202.893 296.746 207.447 286.347C213.229 272.087 207.101 256.686 206.015 242.058C205.356 238.365 204.374 235.433 203.85 231.652C203.631 230.076 204.385 227.455 203.85 226.003C204.102 225.057 207.447 220.918 207.447 218.731Z" fill="#E3AB85"/>
<path fill-rule="evenodd" clip-rule="evenodd" d="M99.3654 123.033L99.8166 123.226L101.366 123.898L101.041 124.643C100.127 126.739 99.0996 128.755 97.9737 130.654L97.7614 131.008L97.4357 131.547L97.4522 131.565C97.5927 131.721 97.7359 131.882 97.8822 132.049L114.931 150.368C122.122 158.088 125.919 162.15 126.321 162.554C127.997 164.238 129.646 164.448 131.154 163.028L131.324 162.867L131.603 162.598L131.794 162.41C132.779 161.438 133.757 160.362 135.164 158.74L150.911 136.403L149.916 134.181C148.091 130.077 147.094 127.678 146.926 126.983L146.85 126.642L146.693 125.908L147.411 125.694C150.004 124.922 152.874 125.125 156.13 126.087L156.318 126.144L156.86 126.311C159.066 126.997 160.315 127.458 161.594 128.141C163.335 129.071 164.62 130.225 165.422 131.73C166.344 133.461 167.05 134.331 168.239 135.035L168.332 135.089L168.448 135.154L168.569 135.22C168.675 135.275 168.791 135.334 168.932 135.403L169.431 135.645C171.007 136.4 171.73 136.883 172.351 137.837C173.035 138.89 173.151 139.875 172.94 141.301L172.921 141.425L172.888 141.626L172.759 142.367L172.728 142.555C172.645 143.085 172.631 143.552 172.691 143.944L172.706 144.033L173.051 145.868L172.366 145.433L174.261 146.977C176.912 149.147 178.492 150.494 180.144 152.012L180.601 152.435L180.691 152.518C183.668 155.295 186.086 157.973 188.11 160.831C190.305 163.929 192.165 167.318 193.667 170.928L193.837 171.341L193.85 171.395C196.1 180.212 197.907 189.143 199.267 198.161L199.398 199.034L200.058 203.509L197.884 199.542C197.546 198.924 196.609 198.312 195.441 197.856L195.331 197.814L195.251 197.784L195.084 197.725C193.802 197.279 192.51 197.236 191.298 197.612L191.173 197.652L190.806 197.775L190.479 197.567C189.877 197.182 189.202 196.857 188.461 196.589L188.274 196.523L187.492 196.255L187.776 195.478C187.99 194.891 187.597 193.739 187.03 193.244C186.148 192.478 184.879 192.264 182.909 192.409L182.642 192.43L182.43 192.45L182.113 192.481L181.113 192.588L181.113 192.593C181.101 192.766 181.093 192.924 181.09 193.074L181.088 193.185L181.088 193.293C181.093 193.665 181.125 194.009 181.186 194.33L181.215 194.466L181.44 195.472L180.409 195.454L179.96 195.447C178.454 195.429 176.873 195.452 175.012 195.514L173.175 195.582L168.488 195.78L164.377 195.925L163.152 195.966L163.093 195.19C163.016 194.168 162.142 193.488 160.592 193.187L160.493 193.168L158.874 192.875L160.204 191.668L160.311 191.568L160.422 191.459C161.491 190.395 161.85 189.42 161.41 188.478C160.895 187.373 159.307 187.05 157.848 187.65L157.748 187.693L157.645 187.739C157.37 187.866 157.098 188.025 156.663 188.305L156.109 188.666L155.907 188.795C155.426 189.098 155.108 189.269 154.706 189.435C153.643 189.876 152.649 189.906 151.02 189.703L150.874 189.684L150.528 189.638L149.646 189.515L149.427 189.486L149.205 189.459C147.54 189.261 146.485 189.368 145.595 189.937C145.025 190.301 144.703 190.766 144.205 191.854L143.968 192.378L143.864 192.603C143.265 193.878 142.811 194.49 141.916 195.021C141.345 195.36 140.804 195.563 139.849 195.841L139.169 196.037L138.928 196.11C138.782 196.156 138.66 196.196 138.532 196.242C137.492 196.612 136.551 197.143 135.667 197.856L135.529 197.967L135.381 198.091C134.52 198.818 133.784 199.605 132.527 201.082L131.612 202.161L131.287 202.54L131.018 202.848C130.989 202.881 130.961 202.913 130.932 202.945L130.676 203.23C128.683 205.417 126.689 207.435 124.658 209.304L124.232 209.694L123.793 210.089L123.432 210.41C122.251 211.45 120.975 212.503 118.994 214.094L116.537 216.061L115.765 216.685C113.444 218.564 112.03 219.777 110.59 221.146L110.232 221.488L110.207 221.635C110.193 221.717 110.178 221.812 110.162 221.918C110.162 221.918 108.756 230.593 110.032 237.707C111.309 244.821 111.761 241.928 113.053 243.675L113.352 244.076C114.061 245.019 114.607 245.686 115.2 246.306L115.9 247.028L116.704 247.68L117.213 247.987C117.58 248.209 117.946 248.384 118.313 248.509C118.82 248.683 119.496 248.34 119.829 247.735L119.86 247.676L120.076 247.241L120.562 247.227C120.676 247.224 120.792 247.206 120.905 247.175C122.054 246.858 122.626 245.49 122.064 244.428L122.033 244.371L121.742 243.854L121.593 243.594C121.378 243.227 121.18 242.917 120.98 242.643L120.904 242.542L119.787 241.073L122.6 241.335L122.83 241.358L123.146 241.391L124.159 241.507C125.213 241.625 126.231 241.732 127.224 241.829L128.07 241.91L129.549 242.045L129.852 242.075L130.509 242.145L132.083 242.315L132.644 242.373L132.956 242.403C133.256 242.431 133.526 242.454 133.796 242.475L134.094 242.496C136.36 242.65 138.129 242.548 139.735 242.096C142.347 241.356 144.973 239.83 147.816 237.573C150.722 235.266 152.824 233.093 154.089 230.839C154.112 230.796 154.116 230.763 154.099 230.722L154.087 230.696L153.607 229.815L154.57 229.53C155.339 229.303 155.992 229.014 156.541 228.644C158.23 227.507 158.795 225.233 157.571 224.044L157.516 223.993L157.442 223.925L156.407 222.375L157.904 222.154C158.404 222.077 158.844 221.99 159.254 221.883C161.989 221.172 163.394 218.992 162.183 216.893L162.143 216.825L161.654 216.017L162.527 215.656C162.714 215.579 162.908 215.506 163.122 215.431L163.253 215.385L163.384 215.341L163.875 215.178C164.912 214.836 165.928 214.576 166.94 214.398C167.741 214.261 168.542 214.172 169.343 214.132L169.644 214.119L169.979 214.107L169.981 214.098L170.177 214.1L170.863 214.077L170.85 214.112C171.867 214.137 172.889 214.236 173.912 214.408L174.154 214.45C174.509 214.512 174.847 214.576 175.207 214.65L176.768 214.981C177.052 215.04 177.3 215.088 177.545 215.132L177.783 215.173L180.297 215.598L177.999 216.704L177.94 216.733L177.881 216.764L177.627 216.904C176.066 217.786 175.142 218.792 174.925 220.034C174.587 221.97 175.688 222.862 178.286 223.163L178.502 223.187L178.731 223.208L178.882 223.22L185.386 223.661L179.227 224.842C177.736 225.128 176.229 225.515 174.708 225.997C174.589 226.035 174.462 226.081 174.323 226.136L174.217 226.179L173.591 226.438L172.991 226.872C171.937 227.654 171.643 228.43 172.169 229.2L172.205 229.251L172.531 229.697L172.235 230.164C171.384 231.504 171.495 233.211 172.512 234.599C173.361 235.757 174.734 236.494 176.608 236.916L176.753 236.948L177.164 237.036L177.764 237.13L178.2 237.19L178.534 237.229L178.759 237.252L179.106 237.284L180.051 237.364C181.394 237.479 182.084 237.571 182.911 237.778C184.023 238.055 185.001 238.506 186.303 239.276L186.455 239.366L186.776 239.56L187.398 239.942L188 240.316L188.203 240.441L188.454 240.592C190.307 241.698 191.528 242.114 192.814 241.92C193.631 241.797 194.316 241.498 194.924 241.023L195.019 240.947L195.952 240.179L195.925 240.023L196.128 239.745C196.516 239.21 198.172 236.093 198.173 236.091C199.241 234.215 200.271 232.919 201.572 232.062L201.684 231.99L201.94 231.833L202.232 231.771L202.379 231.794C202.808 231.861 202.935 232.052 203.056 232.373C203.086 232.456 203.111 232.547 203.135 232.657L203.158 232.766L203.181 232.89L203.217 233.106L203.254 233.358L203.296 233.669L203.342 234.029C203.378 234.319 203.417 234.655 203.461 235.051L203.951 239.568L204.086 240.768L204.211 241.837C204.221 241.924 204.231 242.01 204.242 242.096L204.347 242.963L204.463 243.869C204.761 246.153 205.055 247.989 205.36 249.383L205.416 249.633L205.454 249.796L205.552 250.212C207.301 257.703 208.188 263.888 208.232 270.084C208.271 276.745 206.819 282.69 203.668 287.59C200.664 292.266 196.28 295.659 191.34 296.83C188.736 297.445 186.153 297.311 184.071 296.275C183.691 296.086 183.421 295.892 182.928 295.48L182.764 295.343C182.114 294.792 181.827 294.6 181.48 294.519C181.438 294.509 181.396 294.502 181.356 294.496L181.297 294.49L180.561 294.434L180.548 293.696C180.52 292.123 179.77 291.508 179.84 293.962C179.84 293.962 179.976 297.498 180.012 297.944L180.038 298.238L180.048 298.341L180.159 301.7C154.152 301.7 71.6703 301.7 37.6038 301.7H32.3628L30.1827 298.485C30.1827 298.485 36.1965 297.084 32.0846 297.603C27.6737 298.161 22.5385 295.458 19.7552 290.907L18.7406 289.233L18.43 288.713L18.2579 288.421C17.8442 287.713 17.5496 287.172 17.2376 286.549C15.979 284.036 14.934 281.331 14.0747 278.422C12.4757 273.009 11.638 267.144 11.388 260.512C10.9354 248.514 12.1735 235.852 14.9075 222.659C17.5593 209.862 21.5778 197.424 26.88 185.662C29.5305 179.782 32.452 174.159 35.6549 168.798L35.9991 168.225L36.374 167.606L36.7588 166.974L37.1456 166.345L37.4982 165.777L37.8535 165.21L38.2119 164.643C41.484 159.502 44.393 155.707 47.7557 152.434C50.7438 149.525 53.8918 146.574 57.1997 143.58L57.1286 142.327L57.1257 142.304C57.0557 141.891 55.8103 138.368 57.0686 135.623L57.212 135.314C58.3506 132.904 58.5162 133.524 59.6056 132.764L59.6503 132.732C62.0394 131.021 65.0839 129.848 68.6936 129.065C69.6195 128.864 70.4909 128.775 71.7185 128.726L71.8882 128.719L72.1106 128.712L73.0653 128.683C74.864 128.625 76.2126 127.991 77.2525 126.679L77.3296 126.58L77.4074 126.477L77.4804 126.376C77.7343 126.022 77.977 125.616 78.3686 124.921L78.6368 124.445L78.7657 124.22L78.8977 123.994C79.3466 123.232 79.6654 122.784 80.1159 122.294C81.4767 120.814 83.5881 119.946 85.814 119.801C89.7613 119.543 93.6473 120.602 99.3654 123.033ZM151.169 199.16L150.847 200.742C150.817 200.891 150.8 201.038 150.798 201.181L150.798 201.287L150.821 202.009L150.107 202.115C149.529 202.201 148.956 202.29 148.389 202.383L147.823 202.477L142.491 203.382L147.366 200.933L147.465 200.884L147.492 200.871L147.679 200.781L148.265 200.509L149.708 199.847L151.169 199.16Z" fill="#69C6AC"/>
<path fill-rule="evenodd" clip-rule="evenodd" d="M146.977 117.551C147.279 118.844 147.003 120.303 147.053 121.631C147.101 122.9 147.251 124.162 147.472 125.412C149.791 124.192 152.532 124.035 155.176 124.428C158.595 124.936 162.551 126.06 165.231 128.345C165.893 128.909 166.441 129.577 166.9 130.314C167.451 131.197 167.802 132.196 168.675 132.829C170.026 133.809 171.701 134.188 173 135.274C174.324 136.38 175.146 138.035 175.319 139.743C175.412 140.651 175.262 141.501 175.09 142.388C174.935 143.185 175.011 143.513 175.221 144.28C175.386 144.883 175.071 145.567 174.558 145.9C175.658 146.654 176.743 147.433 177.809 148.242C184.019 152.956 189.271 158.832 192.912 165.745L193 165.917L193.102 166.123C193.989 167.946 196.31 173.275 196.598 174.473C196.805 175.099 197.004 175.727 197.19 176.359C197.68 178.033 198.096 179.729 198.441 181.438L198.533 181.905C198.813 183.341 199.294 185.041 199.217 186.571C200.023 190.749 200.737 194.945 201.347 199.158C201.427 199.71 201.207 200.158 200.866 200.456C201.681 200.587 202.491 200.748 203.293 200.91L203.758 201.008L203.991 201.06C205.66 201.436 207.308 201.984 208.401 203.386C209.579 204.902 209.603 206.851 208.42 208.378C207.414 209.675 205.947 210.292 204.414 210.681C204.112 210.756 203.806 210.827 203.501 210.889C203.296 210.932 203.16 210.651 203.355 210.543L203.68 210.363L204.124 210.12C205.279 209.483 206.478 208.765 207.117 207.616C207.985 206.056 207.298 204.613 205.809 203.821C204.562 203.158 203.02 202.988 201.636 202.761L201.064 202.666C199.617 202.435 198.14 202.285 196.679 202.451C195.401 202.597 194.106 203.032 193.074 203.813L192.978 203.888L192.879 203.971C191.974 204.756 190.671 206.519 192.379 207.027C193.685 207.413 195.275 207.317 196.647 207.392L196.825 207.402C197.974 207.481 199.174 207.481 200.336 207.619C200.752 207.667 201.163 207.735 201.566 207.829C202.72 208.102 202.323 209.638 201.306 209.746C201.057 209.773 200.804 209.786 200.549 209.792C199.884 210.292 198.965 210.519 198.179 210.829C197.428 211.127 196.674 211.421 195.914 211.711C196.568 211.74 197.222 211.794 197.874 211.875C198.084 211.899 198.087 212.183 197.874 212.205C196.306 212.365 194.738 212.538 193.176 212.756C190.758 213.092 188.355 213.54 186.006 214.224C184.29 214.726 182.594 215.323 180.949 216.021L180.452 216.235L180.247 216.324C178.754 216.971 176.823 217.728 175.965 219.154C175.517 219.897 175.32 221.045 175.952 221.757C176.628 222.522 178.045 222.435 178.993 222.472L179.068 222.475C181.074 222.573 183.082 222.586 185.09 222.516C189.298 222.367 193.509 221.908 197.641 221.1C198.404 220.951 198.733 222.094 197.966 222.273C193.091 223.405 188.163 224.027 183.162 224.056L182.614 224.057C180.666 224.429 178.755 224.984 176.86 225.611L176.482 225.738C175.363 226.116 173.452 226.492 172.792 227.602C172.355 228.34 172.508 228.846 172.941 229.189C173.703 229.792 175.325 229.905 176.114 229.935C179.276 230.054 182.441 230.075 185.606 230.008C187.187 229.973 188.768 229.916 190.349 229.835C191.895 229.754 193.547 229.524 195.087 229.673C195.75 229.737 195.971 230.71 195.252 230.892C193.352 231.373 191.222 231.331 189.259 231.392L189.033 231.4C186.925 231.475 184.814 231.508 182.706 231.503C180.897 231.495 179.088 231.459 177.28 231.392L175.682 231.329L175.399 231.315C174.547 231.27 173.677 231.172 172.922 230.821C172.225 231.989 172.746 233.554 173.646 234.478C174.503 235.359 175.739 235.792 176.922 236.062C177.033 236.086 177.144 236.11 177.255 236.132C179.855 236.662 182.503 236.616 184.936 237.811C186.982 238.816 188.855 240.492 191.146 240.889C193.195 241.246 194.684 240.343 195.776 238.673C195.836 238.581 195.895 238.489 195.952 238.397C196.811 237.013 197.43 235.489 198.336 234.132C198.798 233.44 199.32 232.776 199.958 232.235C200.244 231.989 202.249 230.924 202.563 230.605C203.912 229.221 202.717 226.311 203.068 224.576C203.479 222.556 205.255 221.846 206.32 220.281C208.344 217.302 202.793 214.513 204.452 211.256C204.474 211.216 204.501 211.186 204.536 211.167C204.682 211.089 204.914 211.186 204.901 211.378C204.717 213.805 207.031 215.475 207.866 217.578C208.817 219.97 207.298 221.419 205.747 223.016C203.757 225.067 205.157 227.365 204.714 229.835C204.657 230.159 204.564 230.444 204.443 230.7C204.783 230.91 205.045 231.26 205.103 231.747C205.785 237.531 206.518 243.297 207.715 249.001L207.971 250.213L208.314 251.829C209.168 255.873 209.964 259.933 210.116 264.066C210.591 267.555 210.78 271.072 210.498 274.584C209.644 285.273 203.668 296.457 192.811 299.738C190.298 300.498 187.633 300.695 185.055 300.163C184.171 299.982 182.933 299.581 181.822 298.976C181.888 299.688 181.941 300.401 181.963 301.112C182.329 301.519 182.494 302.135 182.286 302.662C181.4 302.371 180.596 301.909 179.871 301.278L179.751 301.171C179.321 299.575 179.196 297.828 179.133 296.147L179.117 295.668C179.1 295.203 179.09 294.746 179.073 294.301C178.982 291.525 179.047 288.744 179.19 285.971L179.295 283.929C179.536 279.168 179.733 274.418 179.601 269.644C179.449 264.149 178.979 258.678 178.39 253.214C178.084 250.394 177.739 247.581 177.384 244.768C177.101 242.503 176.625 240.065 176.617 237.73C174.798 237.341 173.011 236.594 171.892 235.068C170.706 233.449 170.53 231.378 171.584 229.719C170.565 228.324 171.401 227.011 172.66 226.124C170.725 225.04 169.647 222.083 169.36 220.027C169.165 218.616 169.103 216.505 169.706 214.918C168.841 214.948 167.976 215.038 167.111 215.186C166.111 215.362 165.13 215.618 164.162 215.938L163.673 216.1C163.425 216.182 163.147 216.28 162.871 216.394C164.619 219.286 162.373 221.908 159.492 222.657C158.944 222.8 158.384 222.9 157.819 222.981C156.546 223.157 155.246 223.21 153.984 223.327C151.568 223.548 149.138 223.865 146.714 223.967C146.181 223.992 145.838 223.743 145.676 223.397C145.671 223.392 145.668 223.389 145.668 223.384C145.611 223.292 145.573 223.194 145.56 223.092C145.568 223.1 145.579 223.105 145.587 223.111C145.47 222.462 145.86 221.673 146.714 221.578C150.214 221.183 153.762 221.165 157.273 220.875L157.498 220.857C158.6 220.762 159.898 220.587 160.771 219.889C161.582 219.24 161.654 218.397 161.33 217.635C161.325 217.654 161.319 217.675 161.316 217.694C161.292 217.845 161.084 217.84 161.017 217.735C160.814 217.427 160.762 217.124 160.814 216.832C160.571 216.551 160.276 216.302 159.957 216.11C158.543 215.251 156.684 215.016 155.076 214.762C153.317 214.484 151.544 214.356 149.768 214.273C146.273 214.108 142.768 214.392 139.33 215.018C139.187 215.043 139.127 214.843 139.268 214.797C140.608 214.354 141.978 213.981 143.365 213.686C143.333 213.681 143.3 213.675 143.268 213.667C143.146 213.637 143.06 213.489 143.1 213.37C143.105 213.351 143.114 213.332 143.122 213.316C142.533 213.046 142.287 212.138 143 211.77C145.224 210.621 147.835 210.102 150.276 209.629C152.619 209.178 154.987 208.862 157.357 208.581C161.365 208.11 165.736 208.121 169.592 206.856L169.751 206.803C171.321 206.261 173.196 205.164 173.306 203.31C173.468 200.507 169.303 201.237 167.568 201.305C162.819 201.486 158.076 201.816 153.349 202.324C152.384 202.427 151.419 202.532 150.454 202.64C148.976 202.805 147.495 202.978 146.019 203.162C145.195 203.264 144.352 203.4 143.503 203.529C143.238 203.594 142.979 203.64 142.719 203.665C142.7 203.667 142.684 203.662 142.671 203.654C141.435 203.827 140.195 203.959 138.99 203.921C138.851 203.919 138.765 203.702 138.911 203.637C140.468 202.978 142.2 202.589 143.938 202.283C145.014 201.481 146.314 200.837 147.381 200.216C148.846 199.362 150.525 198.105 152.187 197.594C152.935 197.005 153.784 196.532 154.565 196.21C154.341 195.862 154.26 195.378 154.3 194.97C154.449 193.508 155.619 192.691 156.971 192.405C157.39 192.318 157.873 192.254 158.39 192.229C158.4 191.956 158.522 191.689 158.792 191.489L158.872 191.428L158.929 191.383C159.836 190.646 161.637 188.573 159.468 188.421C158.317 188.34 157.343 189.183 156.427 189.754C154.525 190.94 152.684 190.999 150.511 190.705L149.534 190.564L149.372 190.543C147.801 190.336 146.207 190.308 145.33 191.91C144.389 193.624 144.06 195.186 142.162 196.129C140.349 197.029 138.335 197.208 136.671 198.446C134.886 199.77 133.546 201.629 132.087 203.278C128.868 206.91 125.184 210.119 121.389 213.135L120.714 213.67C117.22 216.431 113.613 219.151 109.7 221.278C109.673 221.291 109.646 221.297 109.622 221.297C109.516 221.286 109.438 221.151 109.532 221.059C114.103 216.619 119.449 213.019 124.143 208.697C126.224 206.781 128.205 204.764 130.111 202.673C131.776 200.837 133.251 198.775 135.192 197.213C136.135 196.453 137.154 195.873 138.295 195.467C139.36 195.086 140.554 194.897 141.535 194.313C143.457 193.173 143.271 190.47 145.192 189.242C146.84 188.19 148.847 188.575 150.674 188.824L150.892 188.854C152.076 189.01 153.3 189.143 154.43 188.675C155.549 188.213 156.449 187.348 157.576 186.889C159.146 186.243 161.373 186.397 162.179 188.124C162.949 189.772 161.898 191.264 160.671 192.359C162.344 192.662 163.811 193.47 163.936 195.118C165.163 195.078 166.387 195.034 167.614 194.991C171.887 194.843 176.181 194.556 180.457 194.632C180.36 194.197 180.317 193.748 180.311 193.291C180.309 193.037 180.32 192.783 180.338 192.524C180.371 192.08 180.663 191.813 181.095 191.767L182.061 191.664L182.384 191.632C184.194 191.461 186.217 191.425 187.595 192.621C188.336 193.267 188.933 194.754 188.571 195.746C189.414 196.035 190.217 196.405 190.949 196.873C192.401 196.386 193.925 196.44 195.384 196.948L195.558 197.01C196.595 197.391 198.066 198.112 198.629 199.141C197.261 189.866 195.417 180.67 193.099 171.585C191.619 167.957 189.749 164.489 187.482 161.288C181.771 153.223 173.544 147.677 166.155 141.302C165.503 142.019 164.8 142.702 164.144 143.359L163.865 143.639C162.527 144.994 161.132 146.29 159.706 147.551C156.725 150.186 153.587 152.619 150.472 155.09C144.192 160.072 138.515 165.362 133.791 171.866C133.706 171.983 133.471 171.915 133.536 171.759C136.776 164.057 143.493 158.201 149.595 152.768C152.803 149.911 156.087 147.123 159.172 144.131C160.611 142.736 162.004 141.293 163.318 139.781L163.645 139.401C164.505 138.395 166.517 135.324 167.847 137.54C168.126 138.003 168.114 138.596 167.847 139.06C167.47 139.72 166.99 140.348 166.465 140.953C168.33 141.967 170.157 143.038 171.943 144.172C171.84 143.626 171.866 143.022 171.961 142.418L171.993 142.226L172.123 141.477C172.309 140.372 172.405 139.345 171.705 138.268C170.828 136.921 169.176 136.5 167.86 135.722C166.344 134.824 165.552 133.624 164.74 132.1C163.185 129.183 159.672 128.013 156.653 127.075L156.273 126.957C153.484 126.092 150.466 125.63 147.677 126.461C147.938 127.678 148.281 128.879 148.709 130.048C149.164 131.293 150.204 132.677 150.098 134.022C150.024 134.952 148.908 135.947 147.982 135.236C146.67 134.229 146.408 132.59 146.056 131.029C145.716 129.518 145.499 127.971 145.407 126.426C145.318 124.937 145.387 123.449 145.571 121.97L145.712 120.884L145.746 120.631C145.899 119.534 146.127 118.381 146.745 117.52C146.804 117.438 146.95 117.436 146.977 117.551ZM108.914 111.377C108.934 111.465 108.948 111.551 108.96 111.638C109.051 112.008 109.084 112.364 109.073 112.722C109.079 112.851 109.069 112.98 109.045 113.108C108.997 113.529 108.895 113.961 108.758 114.433C108.467 115.437 108.133 116.43 107.76 117.407C107.022 119.341 106.151 121.185 105.074 122.953C103.129 126.147 100.656 128.798 97.7408 131.09C98.294 131.546 98.8348 132.021 99.3767 132.487C101.996 134.742 104.544 137.098 107.013 139.516C111.396 143.812 115.692 148.187 119.886 152.667C121.955 154.876 123.986 157.115 126.005 159.368L126.072 159.444L126.143 159.529C126.86 160.397 128.294 162.465 129.363 162.133C129.903 161.965 130.472 161.159 130.84 160.774L131.518 160.067C131.743 159.831 131.967 159.593 132.188 159.352C136.132 155.03 139.865 150.542 143.37 145.851C145.08 143.562 146.734 141.23 148.327 138.858C149.146 137.638 149.95 136.407 150.737 135.166C151.499 133.966 152.115 132.677 153.237 131.781C154.061 131.124 155.202 131.726 154.995 132.804C154.668 134.501 153.493 135.936 152.568 137.37C151.639 138.812 150.689 140.239 149.716 141.651C147.845 144.37 145.893 147.032 143.871 149.64C142.13 151.886 140.313 154.075 138.448 156.219L137.938 156.802C135.931 159.09 133.961 161.519 131.744 163.607C129.758 165.477 127.589 164.932 125.78 163.115C123.492 160.817 121.368 158.332 119.167 155.951C114.768 151.192 110.323 146.469 105.832 141.797L104.356 140.259C102.635 138.462 100.92 136.654 99.2508 134.813L99.0353 134.573C97.1314 132.431 95.1954 129.748 92.4886 128.659C92.2929 128.581 92.3648 128.303 92.5761 128.342C94.3088 128.662 95.7553 129.535 97.1013 130.578C98.311 128.576 99.3905 126.466 100.332 124.307L99.7278 124.045C95.4078 122.179 90.5387 120.296 85.9007 120.599C84.0314 120.721 82.0371 121.429 80.7465 122.832C79.5779 124.103 78.9944 125.817 77.9219 127.171C76.6935 128.721 75.0914 129.419 73.1251 129.482L72.169 129.511C71.0694 129.547 70.0148 129.605 68.8994 129.847C65.8772 130.502 62.691 131.565 60.1564 133.38C59.2369 134.039 58.2877 134.944 57.8431 135.942C57.4023 136.93 57.2755 138.086 57.2325 139.153C57.2117 139.673 57.3677 140.36 57.2374 140.858C57.2523 140.801 57.259 140.831 57.2609 140.89C57.6661 141.21 57.942 141.741 57.972 142.27C60.4985 140.953 63.1139 139.799 65.7802 138.759C68.7489 137.601 71.8097 136.673 74.8711 135.794C77.8673 134.934 81.0036 134.578 84.0579 133.965C84.4469 133.887 84.582 134.412 84.2196 134.552C81.0093 135.785 77.903 137.246 74.666 138.406C71.4305 139.566 68.2191 140.821 65.0775 142.216C59.005 144.914 53.1393 148.347 48.3552 153.004C43.6827 157.552 40.0786 163.078 36.7267 168.634C33.351 174.229 30.3382 180.027 27.6531 185.984C22.3411 197.768 18.3578 210.157 15.7354 222.812C13.1832 235.128 11.7572 247.883 12.2321 260.47C12.4575 266.448 13.1878 272.432 14.8862 278.181C15.6975 280.928 16.7132 283.612 17.9965 286.175C19.3497 288.877 21.173 291.283 22.4087 294.031C22.5103 294.257 22.5492 294.474 22.5436 294.675C27.8139 299.242 36.0631 296.164 41.767 293.438C54.8914 287.162 67.7726 280.295 80.016 272.414C92.0999 264.635 103.551 255.954 114.733 246.943C113.868 246.051 113.105 245.051 112.435 244.146C111.051 242.276 110.011 240.157 109.295 237.946C108.457 235.356 108.197 232.586 108.435 229.881L108.503 229.116C108.731 226.561 108.994 223.969 109.554 221.472C109.559 221.44 109.584 221.426 109.611 221.426C109.638 221.426 109.665 221.443 109.676 221.472C111.187 226.308 111.308 231.505 113.005 236.278C113.689 238.197 114.749 240.051 116.019 241.643C116.568 242.332 117.211 242.93 117.867 243.513C117.911 243.216 117.97 242.922 118.059 242.632L118.13 242.403C118.218 242.125 118.327 241.816 118.478 241.543C118.265 241.481 118.057 241.413 117.852 241.337C117.689 241.278 117.654 241.016 117.852 240.973C118.389 240.849 118.943 240.786 119.508 240.759C119.597 240.746 119.684 240.743 119.77 240.749C120.827 240.716 121.903 240.792 122.922 240.808C124.687 240.835 126.446 240.867 128.208 240.946C131.581 241.091 135.389 241.738 138.708 240.954C141.725 240.24 144.698 238.229 147.116 236.337C149.23 234.684 150.86 232.719 152.614 230.759C152.488 230.779 152.363 230.798 152.238 230.815L151.107 230.97C149.68 231.161 147.985 231.31 146.852 230.624C146.419 230.362 146.544 229.767 146.984 229.605C148.141 229.181 149.576 229.532 150.808 229.473C151.776 229.427 152.755 229.324 153.709 229.124C154.022 229.059 154.333 228.984 154.641 228.894C156.9 228.243 159.555 225.951 157.76 223.448C157.692 223.354 157.768 223.267 157.86 223.251C157.901 223.243 157.944 223.251 157.979 223.281C160.022 224.972 158.96 228.005 157.027 229.305C156.363 229.754 155.611 230.067 154.833 230.297C154.982 230.57 155.008 230.905 154.83 231.224C153.317 233.921 150.755 236.291 148.354 238.197C145.89 240.154 143.046 242 139.99 242.865C136.46 243.859 132.581 243.111 129 242.794C127.059 242.624 125.125 242.421 123.187 242.197C122.667 242.138 122.13 242.092 121.584 242.04C122.097 242.716 122.506 243.494 122.773 243.962C123.643 245.481 122.841 247.481 121.154 247.946C120.978 247.995 120.797 248.022 120.619 248.027C120.165 248.938 119.084 249.608 118.084 249.265C117.649 249.116 117.23 248.913 116.827 248.67C110.538 254.195 103.916 259.378 97.1054 264.238C84.4755 273.249 71.2373 281.479 57.5104 288.714C54.4185 290.344 51.3029 291.93 48.161 293.454L45.4567 294.757C42.4634 296.198 39.3999 297.631 36.221 298.524C35.6012 298.699 34.9523 298.84 34.2875 298.947C34.2788 299.007 34.2767 299.064 34.2806 299.118C33.6828 299.198 33.1613 299.21 32.7159 299.155L32.6145 299.141C28.7179 299.413 24.5501 298.462 22.0433 295.616C21.6254 295.909 21.0162 295.942 20.4787 295.52C17.7751 293.398 16.1635 290.169 14.7492 287.085C13.3151 283.957 12.191 280.698 11.3651 277.358C9.71532 270.688 9.06099 263.808 9.02651 256.947C8.9018 230.509 15.5229 203.84 27.0236 180.104C29.9404 174.085 33.1556 168.177 36.7248 162.519C40.2843 156.875 44.4176 151.631 49.7108 147.515C51.233 146.332 52.8166 145.25 54.4498 144.253C53.3536 143.71 52.9182 142.328 52.8414 141.1C52.6711 138.374 52.996 135.233 54.5922 132.933C56.8315 129.706 60.8399 127.716 64.5567 126.748C66.497 126.244 68.504 125.949 70.5054 125.85C71.5373 125.798 72.6094 125.968 73.6289 125.857C74.5284 125.759 75.0846 125.222 75.6019 124.516C76.9271 122.707 77.7898 120.81 79.6906 119.484C81.6409 118.124 84.1682 117.603 86.5177 117.744C89.2547 117.909 91.7518 118.987 94.1624 120.227C96.3381 121.345 98.45 122.584 100.508 123.905C100.885 123.021 101.241 122.131 101.571 121.237C102.212 119.504 102.77 117.716 103.222 115.924C103.681 114.108 103.614 111.709 104.999 110.343C106.204 109.156 108.524 109.622 108.914 111.377ZM202.288 232.584L202.278 232.586C199.476 234.247 198.136 238.397 196.817 240.21C196.925 240.818 197.001 241.437 197.149 242.013C197.49 243.335 197.936 244.646 198.452 245.905C199.36 248.13 200.498 250.249 201.55 252.405C202.396 254.139 203.225 255.906 203.869 257.731C203.799 257.801 203.735 257.884 203.68 257.987C202.98 259.297 202.433 259.04 201.142 258.754L201.142 258.751C200.403 256.492 199.339 254.37 198.382 252.202L198.149 251.673L197.919 251.143C197.12 249.288 196.39 247.416 195.966 245.427C195.695 244.159 195.584 242.856 195.569 241.562C194.869 242.138 194.028 242.551 192.968 242.71C190.702 243.053 188.648 241.633 186.801 240.494L186.385 240.239C185.229 239.536 184.082 238.886 182.749 238.554C181.236 238.175 179.671 238.175 178.133 237.983C177.949 237.959 177.763 237.935 177.576 237.905C178.176 239.892 178.455 242.048 178.812 244.038C179.309 246.827 179.714 249.64 180.104 252.446C180.86 257.884 181.387 263.365 181.655 268.849C181.914 274.158 181.783 279.448 181.591 284.756L181.495 287.345C181.418 289.453 181.355 291.562 181.392 293.671C181.495 293.678 181.598 293.695 181.701 293.719C182.766 293.968 183.492 295.054 184.466 295.538C186.52 296.56 189.001 296.546 191.187 296.03C196.16 294.851 200.296 291.381 203.02 287.141C206.29 282.054 207.49 276.067 207.452 270.078C207.407 263.338 206.316 256.893 204.796 250.386L204.698 249.97C203.419 244.549 202.618 232.636 202.288 232.584ZM63.0325 218.984C63.0609 220.797 62.3236 222.736 61.9184 224.498C61.4822 226.396 61.0471 228.294 60.606 230.192L60.2093 231.892C59.879 233.308 59.5533 234.726 59.2614 236.151C59.0214 237.323 58.9208 238.867 58.5276 240.158C63.2052 238.266 67.8901 236.394 72.5672 234.508C78.3294 232.184 84.1187 229.924 89.8944 227.638C95.6485 225.362 101.37 222.773 107.241 220.827C108.638 220.362 109.584 222.592 108.246 223.21C102.284 225.975 95.9755 228.14 89.8674 230.562L81.0317 234.07C72.9319 237.284 64.8266 240.482 56.6806 243.57C51.1319 245.673 45.6048 247.838 40.0209 249.835C37.3587 250.787 34.6725 251.687 32.0236 252.673C29.8046 253.5 27.4046 254.727 26.583 257.111C26.5397 257.235 26.3694 257.184 26.3884 257.057C26.7208 254.749 28.4346 253.305 30.3668 252.214C32.9313 250.761 35.7481 249.703 38.4552 248.538L38.8236 248.379C44.3515 245.968 49.924 243.655 55.513 241.38C55.4576 241.245 55.4249 241.1 55.4224 240.949L55.4065 240.953C55.3049 239.92 55.7787 238.998 56.1195 238.037L57.097 235.279C57.7484 233.443 58.3327 231.584 58.9346 229.731C59.5641 227.794 60.1995 225.859 60.8338 223.924C61.3711 222.285 61.7322 220.331 62.6514 218.866C62.7622 218.689 63.0676 218.788 63.0325 218.984ZM170.679 214.908L170.609 215.26C170.528 215.671 170.452 216.086 170.433 216.502C170.379 217.592 170.503 218.68 170.793 219.732C171.076 220.772 171.473 221.778 172.038 222.7C172.574 223.567 173.349 224.248 173.844 225.138C173.895 225.232 173.927 225.326 173.941 225.419C174.13 225.34 174.317 225.27 174.498 225.213C176.006 224.735 177.546 224.335 179.109 224.035L178.861 224.018L178.701 224.005C176.091 223.784 173.628 222.931 174.16 219.883C174.461 218.161 175.813 217.005 177.262 216.187L177.444 216.086C177.522 216.043 177.603 215.999 177.682 215.962C176.371 215.74 175.42 215.467 173.811 215.197C172.768 215.021 171.722 214.924 170.679 214.908ZM51.4371 177.371C54.0036 182.557 55.9344 188.07 57.3912 193.664C58.0945 196.366 58.6914 199.094 59.1713 201.843L59.3289 202.762L59.4185 203.26C59.8667 205.711 60.4361 208.366 59.7777 210.758C59.5628 211.539 58.2655 211.848 57.9023 211.003C56.8066 208.452 56.9607 205.519 56.6431 202.789C56.3093 199.924 55.8539 197.072 55.2863 194.245C54.1961 188.811 52.6659 183.504 50.9603 178.238L50.77 177.653C50.6252 177.263 51.256 177.006 51.4371 177.371ZM150.087 200.57C149.322 200.929 148.557 201.259 147.881 201.588C147.83 201.616 147.776 201.64 147.722 201.667C148.487 201.537 149.254 201.416 150.022 201.302C150.014 201.053 150.038 200.808 150.087 200.57ZM180.015 197.973C179.9 198.01 179.799 198.07 179.71 198.153L179.667 198.196C179.562 198.294 179.487 198.41 179.444 198.544C179.376 198.673 179.345 198.812 179.35 198.961L179.389 199.248C179.44 199.431 179.533 199.59 179.667 199.725L179.886 199.894C180.033 199.98 180.191 200.028 180.359 200.039L180.432 200.042L180.65 200.042C180.776 200.038 180.893 200.007 181.004 199.949C181.119 199.911 181.22 199.851 181.309 199.768L181.352 199.725C181.457 199.627 181.532 199.511 181.575 199.377C181.633 199.267 181.664 199.149 181.668 199.024L181.668 198.961L181.63 198.673C181.585 198.513 181.508 198.371 181.4 198.248L181.352 198.196L181.133 198.027C180.985 197.942 180.828 197.893 180.66 197.882L180.587 197.88H180.432C180.283 197.874 180.144 197.905 180.015 197.973ZM172.983 197.607C172.409 197.712 172.083 198.408 172.228 198.936C172.389 199.521 172.944 199.781 173.502 199.701L173.558 199.692C174.211 199.571 174.852 199.618 175.474 199.847C176.022 200.05 176.659 199.621 176.804 199.092C176.97 198.488 176.599 197.965 176.049 197.762C175.062 197.398 174.004 197.419 172.983 197.607ZM59.1139 159.213C60.4217 161.13 61.2382 163.677 62.0437 165.868L62.1242 166.085C62.9805 168.387 63.8064 170.707 64.5767 173.039C66.1143 177.694 68.1181 182.566 68.4883 187.484C68.5567 188.392 67.1678 188.755 66.7651 187.951C65.6081 185.638 64.9859 183.227 64.3013 180.748C63.6483 178.383 62.968 176.027 62.2875 173.67C61.6072 171.315 60.9491 168.952 60.2791 166.594C59.6275 164.299 58.7201 161.748 58.571 159.36C58.5515 159.05 58.9637 158.993 59.1139 159.213ZM88.6303 143.785C90.376 144.996 91.8057 146.768 93.283 148.284C94.7817 149.822 96.2603 151.374 97.7252 152.944C100.173 155.569 102.577 158.236 105.059 160.829C110.006 165.995 115.603 170.749 122.43 173.177C124.082 173.765 123.359 176.416 121.703 175.816C114.719 173.284 108.934 168.603 103.831 163.307C101.188 160.564 98.7628 157.633 96.3982 154.65C95.2916 153.254 94.1933 151.854 93.1107 150.44L92.463 149.59C91.1016 147.794 89.4359 146.003 88.4397 143.975C88.3838 143.861 88.5065 143.699 88.6303 143.785Z" fill="black"/>
<path fill-rule="evenodd" clip-rule="evenodd" d="M164.249 76.7368C163.716 72.0161 164.406 62.1491 164.452 61.5496C164.744 57.7599 162.982 42.7948 159.651 44.1737C154.063 39.7161 146.62 38.7318 139.66 38.2616C125.204 37.2847 109.825 39.5271 98.6621 49.3303C93.1417 54.4213 87.7673 61.8259 88.1993 69.5356C83.1836 76.8436 76.1127 86.8682 82.362 95.4117C84.4862 98.1413 87.8624 99.1578 90.5309 101.225C95.8985 105.588 99.266 111.848 104.685 116.185C119.04 129.183 143.415 131.899 157.52 117.114C168.426 106.406 166.663 90.3874 164.744 76.7368C163.454 67.5594 165.289 85.9463 164.249 76.7368Z" fill="#E3AB85"/>
<path fill-rule="evenodd" clip-rule="evenodd" d="M120.348 18.2425C124.215 17.4564 128.185 16.9672 132.133 17.1145L132.437 17.1264C135.408 17.246 139.17 17.5107 141.761 19.2513C141.911 19.1006 142.15 19.0232 142.368 19.1278C145.447 20.609 148.835 21.6799 152.077 22.7441C155.305 23.803 158.653 24.5021 162.036 24.7838C163.309 24.8899 164.399 26.2748 163.593 27.5169C163.401 27.8129 163.214 28.1119 163.028 28.4116C163.339 28.3789 163.65 28.3452 163.961 28.3135C164.985 28.2097 166.008 29.3106 165.947 30.3148C165.909 30.9465 165.841 31.5707 165.741 32.1874C166.131 32.1791 166.519 32.238 166.893 32.3975C168.79 33.2044 168.658 35.4802 168.516 37.2117C168.319 39.6146 167.427 42.1598 165.771 43.9582C167.008 45.2522 167.883 46.7975 168.405 48.6329C168.784 49.9731 168.994 51.4006 168.89 52.7957L168.857 53.2134C168.729 54.7274 168.473 56.4035 167.392 57.4927C166.837 58.0542 166.154 58.2589 165.502 58.194C165.896 61.683 166.149 65.192 166.386 68.6885L166.498 70.3596C167.028 78.4407 167.427 86.5745 167.323 94.6689C167.226 102.233 165.742 109.576 161.138 115.718C156.945 121.311 150.924 125.434 144.113 127.001C140.442 127.847 136.695 127.907 132.98 127.368C131.179 127.106 129.366 126.704 127.657 126.07C125.765 125.366 124.405 124.33 123.132 122.778C122.53 122.042 122.82 120.475 124.019 120.622C125.832 120.843 127.488 121.11 129.226 121.651L129.475 121.73C131.206 122.289 133 122.706 134.81 122.883C138.518 123.245 142.282 122.88 145.834 121.747C151.617 119.901 156.598 115.785 159.791 110.614C163.58 104.485 164.009 97.5265 163.954 90.4786C163.895 82.7448 163.646 75.0064 163.238 67.2806L163.169 65.9931C162.953 62.0174 162.745 58.0393 162.562 54.0611C162.505 52.8132 162.419 51.5554 162.262 50.31C160.833 49.4665 159.553 48.3035 158.718 46.8684C157.042 47.5672 155.278 48.0714 153.656 48.4732C149.897 49.4046 145.995 49.6307 142.17 49.0474C141.138 49.4769 140.086 49.8545 139.017 50.1795C138.729 50.3085 138.44 50.4353 138.151 50.5596C135.575 51.6702 132.962 52.6111 130.243 53.2999L129.575 53.4677C128.144 53.8232 126.59 54.1733 125.067 54.2832C124.816 54.3805 124.546 54.4629 124.251 54.5353C122.865 54.8747 121.425 54.982 120.004 54.8622C118.619 54.7449 117.619 53.3348 118.382 52.0146C118.939 51.0512 119.501 50.0904 120.068 49.132C118.094 49.9606 116.056 50.6494 114 51.2334C111.925 51.8224 109.82 52.3191 107.712 52.7758C106.585 53.0179 105.453 53.2325 104.329 53.4746C103.524 53.6468 102.288 53.7366 101.631 54.2707C100.906 54.8572 100.7 56.2249 100.425 57.0684C100.063 58.164 99.7241 59.2646 99.4145 60.3777C98.798 62.5989 98.2928 64.8526 97.9014 67.1287C97.5101 69.4072 97.2473 71.7083 97.1012 74.0168C96.9553 76.3229 97.0195 78.6439 96.7844 80.94C96.6578 82.1579 95.3603 82.7843 94.4018 81.9332C94.2893 81.8334 94.176 81.7325 94.0638 81.6304L93.8965 81.4765C93.0764 80.7278 92.2814 79.9342 91.6253 79.0407C91.5064 78.876 91.3925 78.7038 91.286 78.5291C91.2687 78.5291 91.2538 78.5241 91.2365 78.5116L91.0545 78.3737C89.0514 76.8713 85.7049 74.9126 83.7517 77.4085C83.1293 78.2036 82.8106 79.2161 82.5461 80.1928L82.0821 81.9409C81.7819 83.0821 81.4994 84.2296 81.3341 85.3973C80.9601 88.0128 81.1484 91.0276 82.9344 93.124C83.6477 93.9626 84.6309 94.5616 85.7279 94.7188C86.3399 94.8037 86.9442 94.6988 87.551 94.6215C88.1678 94.5441 88.7619 94.6689 89.3789 94.609C90.3597 94.5117 90.7882 95.6946 90.4216 96.4384C90.2235 96.8377 89.9904 97.1821 89.7256 97.4741C89.9384 97.6588 90.1417 97.8584 90.3374 98.0681C90.917 98.2552 91.4368 98.657 91.8259 99.1886C92.1405 99.6179 92.3037 100.085 92.3312 100.576C92.3656 100.699 92.3953 100.823 92.4228 100.951L92.9542 101.82C93.0711 102.01 93.1875 102.198 93.3043 102.383C94.6566 104.529 96.1578 106.346 98.0228 108.058C99.8184 109.706 101.767 111.181 103.454 112.948L103.653 113.157C105.226 114.827 106.883 116.849 106.268 119.277C106.109 119.901 105.245 120.35 104.68 119.928C102.865 118.57 101.951 116.419 100.41 114.772C98.825 113.075 97.069 111.55 95.4792 109.858C93.9755 108.261 92.7891 106.451 91.8953 104.46C91.5384 104.856 91.0185 105.138 90.2978 105.248C89.0594 105.435 87.905 104.704 87.3653 103.624C87.0183 103.778 86.6644 103.918 86.3075 104.028C84.4301 104.607 83.2489 102.503 83.9573 100.948C84.336 100.115 84.809 99.3908 85.3963 98.7818C83.5607 98.5273 81.6932 97.5714 80.4871 96.3785C77.4607 93.3811 77.0446 88.8763 77.7257 84.8707C78.0873 82.7469 78.7112 80.598 79.5214 78.604C79.6623 78.2571 79.8136 77.9077 79.9793 77.5632C79.8877 77.5608 79.7936 77.5208 79.7341 77.4435C79.1868 76.6897 78.5208 76.0733 78.1143 75.2297C77.7403 74.4561 77.3245 73.6724 77.0295 72.8663C76.4229 71.2166 76.1257 69.3548 75.9276 67.6103C75.5189 64.039 75.6772 60.49 76.2199 56.9411C77.1434 50.8965 79.3745 45.1119 82.6614 40.0361C82.4825 39.9414 82.3109 39.827 82.1511 39.6917L82.0722 39.6224L81.9439 39.5056C81.0059 38.6503 81.0869 37.0473 81.9439 36.181L82.2146 35.9076C82.5573 35.5645 82.8528 35.2927 83.4064 34.9192C83.4882 34.864 83.5716 34.8121 83.6561 34.7637C83.3663 34.2241 83.2657 33.5932 83.4676 32.8971C84.171 30.4723 87.6335 30.5582 89.8282 31.6156C92.2561 29.4321 94.9484 27.5366 97.8665 26.0017C104.817 22.348 112.675 19.7999 120.348 18.2425ZM84.423 82.1079C85.7208 81.6812 87.4446 82.5771 88.6112 83.1162C90.0898 83.8 91.348 84.8108 92.5666 85.879C93.1734 86.4131 93.2821 87.2866 93.1313 88.0328C93.1161 88.1076 93.1015 88.185 93.084 88.2624C92.923 89.0585 92.0412 89.6849 91.2611 89.6625C89.6289 89.6176 88.8514 88.1975 87.9273 86.9946C87.8186 87.1892 87.6824 87.3689 87.5137 87.5037L87.3998 87.5935C87.0164 87.8877 86.5937 88.1229 86.0871 88.1002C85.728 88.0827 85.3839 87.9904 85.0667 87.8231C84.2741 87.4014 83.9251 86.3681 84.1404 85.5271C84.2741 84.998 84.5812 84.5837 84.9825 84.2967L84.8329 84.1936C84.5129 83.9692 84.221 83.7326 83.9936 83.3835L83.9422 83.3009H83.962C83.7144 82.8716 83.8756 82.2876 84.423 82.1079Z" fill="black"/>
<path fill-rule="evenodd" clip-rule="evenodd" d="M131.37 100.788C133.199 97.1816 149.968 98.8024 149.968 98.8024L151.385 110.265C151.385 110.265 143.293 112.83 138.477 112.293C133.661 111.755 129.542 104.394 131.37 100.788Z" fill="white"/>
<path fill-rule="evenodd" clip-rule="evenodd" d="M132.552 106.808C131.973 105.586 143.961 102.252 147.673 104.53C151.385 106.808 150.224 109.915 150.224 109.915C150.224 109.915 134.613 113.428 132.552 106.808Z" fill="#FF8181"/>
<path fill-rule="evenodd" clip-rule="evenodd" d="M130.33 98.6539C133.129 95.4467 137.841 95.2234 141.745 96.0253C144.251 96.54 146.69 97.3974 149.234 97.7152C150.423 97.8637 151.624 97.9081 152.821 97.8862C153.997 97.8648 155.175 97.6311 156.347 97.6746C156.527 97.6811 156.595 97.9144 156.439 98.0093C154.831 98.9832 152.666 99.2956 150.767 99.486C150.773 99.6246 150.781 99.7598 150.801 99.8746C150.853 100.18 150.9 100.484 150.938 100.792C151.024 101.486 151.121 102.179 151.217 102.872C151.406 104.236 151.466 105.643 151.799 106.983L151.858 107.206C151.935 107.487 151.953 107.741 151.927 107.97L152.004 107.936L152.248 107.819L152.408 107.745C152.991 107.478 153.548 107.284 154.234 107.349C154.757 107.398 155.195 107.749 155.198 108.299C155.211 110.768 151.838 111.562 149.908 112.035L149.342 112.173C146.886 112.763 144.378 113.281 141.852 113.405C137.798 113.604 133.242 112.501 130.59 109.257C128.116 106.231 127.662 101.712 130.33 98.6539ZM148.741 109.028C148.316 105.31 143.684 105.106 142.352 107.463C141.761 104.178 133.015 107.179 133.699 107.833C136.291 110.309 140.224 110.531 143.606 110.074C145.328 109.84 147.052 109.46 148.741 109.028ZM143.601 99.2846L142.437 99.1193L141.978 99.057C139.091 98.6757 135.845 98.4788 133.472 100.304C132.606 100.97 132.118 101.839 131.936 102.773C134.181 102.445 136.435 102.194 138.696 101.986L139.313 101.93C140.727 101.804 142.141 101.672 143.554 101.532L144.558 101.432L145.562 101.329C145.915 101.293 148.296 101.173 148.743 101.253C148.791 100.857 148.854 99.9983 148.955 99.6122C147.263 99.6688 145.579 99.5449 143.898 99.3245L143.601 99.2846ZM148.961 82.6693C150.686 83.7038 153.315 86.1161 151.459 88.6808C149.274 90.9421 146.128 88.3493 144.578 87.1767C143.141 86.2679 141.526 88.6052 142.859 89.6664C154.061 97.8467 158.607 82.9398 149.834 81.453C148.868 81.2891 148.509 82.3493 148.961 82.6693ZM152.049 87.0274L152.132 86.9829L152.16 86.9662C152.208 86.9352 152.177 86.9386 152.067 86.9763L151.984 87.0056V87.0633C152.006 87.0504 152.028 87.0407 152.049 87.0274ZM129.95 77.8364L129.95 77.7856C129.953 76.3484 130.802 73.0669 132.9 73.0669C134.21 73.0669 135.006 75.3002 135.143 77.6024L135.148 77.6962C135.209 79.1275 134.811 82.2561 132.9 82.2561C130.968 82.2561 129.97 79.2929 129.95 77.8364V77.8364ZM160.833 77.3856L160.834 77.3348C160.83 75.8976 159.982 72.6162 157.884 72.6162C156.606 72.6162 155.818 74.7392 155.652 76.9791L155.64 77.1516C155.558 78.5346 155.93 81.8053 157.884 81.8053C159.816 81.8053 160.813 78.8422 160.833 77.3856V77.3856ZM131.147 63.268C132.859 63.0112 135.126 63.499 135.924 65.2159C136.28 65.9809 135.859 66.8267 134.962 66.8691C132.796 66.9714 130.853 66.4959 128.951 67.8853C128.133 68.4834 127.445 69.3115 126.867 70.1375L126.649 70.4518L126.468 70.7108C126.076 71.2793 125.705 71.897 125.763 72.583C125.78 72.786 125.569 72.9787 125.369 72.9706C124.123 72.9201 123.989 71.379 124.153 70.4533C124.458 68.7355 125.301 67.1229 126.469 65.824C127.696 64.46 129.316 63.5427 131.147 63.268ZM154.726 65.3528C155.906 64.6044 157.416 64.3168 158.799 64.427C161.526 64.6436 166.1 66.9298 165.498 70.2148C165.312 71.2279 163.884 71.7625 163.042 71.2004C162.137 70.5961 161.917 69.6569 161.243 68.8672C160.706 68.2364 160.024 67.78 159.295 67.3912C158.576 67.0077 157.744 66.7753 156.929 66.6906L156.793 66.6779C156.302 66.6366 153.822 66.6477 154.186 67.5607C154.257 67.7394 153.988 67.8809 153.864 67.7457C153.104 66.9163 153.965 65.8356 154.726 65.3528Z" fill="black"/>
</svg>
