<svg width="82" height="106" viewBox="0 0 82 106" fill="none" xmlns="http://www.w3.org/2000/svg">
<g clip-path="url(#clip0_84_750)">
<path d="M38.7585 100.111C10.1132 100.111 0.841297 77.274 0.841297 66.2088C0.841297 58.5886 3.28871 53.6007 4.95954 51.0626C4.95954 55.0022 5.97733 58.4826 7.78935 60.4848C8.26097 61.0543 8.85007 61.5149 9.51623 61.8351C10.1824 62.1553 10.9099 62.3274 11.6487 62.3398C14.8374 62.3398 16.9789 59.9842 16.9789 56.4509C16.9789 54.2485 15.6317 52.7586 14.2079 51.1804C12.4841 49.2724 10.678 47.2937 10.678 43.6308C10.678 39.1906 13.3607 34.9859 15.161 32.6657C15.161 40.2624 20.2558 43.4541 23.221 44.0901L24.3976 44.3492L24.2211 43.1715C24.2211 43.1008 23.2386 35.7338 29.0395 28.514C29.769 27.6071 30.5397 26.6885 31.3104 25.7698C35.3639 20.935 39.5468 15.9412 39.5468 10.6412C39.5286 7.63936 38.9021 4.67238 37.7054 1.9198C50.2484 8.8098 50.0601 18.4087 48.7482 23.6675C48.4128 25.0219 46.8597 31.9414 49.4424 35.2568C49.8975 35.8359 50.4839 36.2982 51.153 36.6054C51.8221 36.9126 52.5546 37.0559 53.29 37.0235C56.008 37.0235 58.1848 35.3687 59.5791 32.2358C59.9803 31.3164 60.2974 30.3624 60.5263 29.3856C66.639 36.305 65.1035 42.6002 62.6325 46.7578C60.3675 50.562 59.7262 54.4664 60.997 56.71C61.3623 57.3463 61.8993 57.8667 62.5466 58.2115C63.1938 58.5562 63.925 58.7114 64.6563 58.6592C65.3404 58.672 66.019 58.5353 66.6449 58.2586C67.2708 57.982 67.8289 57.5721 68.2804 57.0575C70.2454 54.8727 70.6337 50.8682 70.6337 48.1711C73.0987 51.6161 76.1109 56.9161 76.1109 64.3479C76.1109 70.2368 73.9636 79.2468 67.9509 86.8788C63.2032 92.9149 54.2725 100.111 38.7585 100.111Z" fill="#F24E1E"/>
<path d="M74.7166 50.5561C74.817 51.6602 74.8504 52.7693 74.8166 53.8774C73.6784 51.2684 72.2199 48.8115 70.4748 46.5634C71.0631 42.6709 70.1689 37.7772 65.0211 32.6539C64.9426 33.2713 64.8247 33.883 64.6681 34.4853C63.6065 31.8833 62.0019 29.5382 59.9615 27.6071C59.9615 27.6071 59.0967 35.5453 53.8842 36.146C53.7337 33.7162 53.966 31.2779 54.5725 28.9203C55.3727 25.7168 56.9964 16.1709 46.7773 8.57422C44.6535 5.54144 41.1824 2.53222 35.7757 0C37.6681 3.22895 38.6955 6.8923 38.7585 10.6353C38.7585 16.6008 32.9165 22.4131 28.4276 27.9722C22.3091 35.5924 23.4387 43.2833 23.4387 43.2833C22.9654 43.1669 22.5044 43.0051 22.062 42.8004C21.2442 40.9396 20.8206 38.4957 21.2501 35.2627C20.0273 36.5485 18.9355 37.9531 17.9908 39.4556C16.5965 37.4828 15.6375 34.5442 16.2259 30.1864C16.2259 30.1864 9.89554 36.5347 9.89554 43.619C9.89554 50.7033 16.1611 52.1756 16.1611 56.4627C16.1611 59.5956 14.3315 61.5271 11.6723 61.5271H11.6311C10.8804 58.9279 10.6662 56.2029 11.0016 53.5182C9.56463 55.0516 8.4077 56.8256 7.58344 58.7593C6.14206 56.3096 5.51256 52.4994 5.95968 48.4656C5.95968 48.4656 0 54.0894 0 66.2147C0 73.6111 3.7476 84.9178 13.1901 92.6087C19.2557 100.046 29.0748 106 43.7828 106C72.481 106 81.9823 82.0617 81.9823 69.3947C82 60.0667 77.3405 53.9128 74.7166 50.5561ZM67.2802 86.3606C62.6384 92.2494 53.9254 99.269 38.7409 99.269C10.7309 99.269 1.67671 76.9972 1.67671 66.2147C1.60441 61.9562 2.50806 57.7378 4.31827 53.8833C4.70067 56.8278 5.69493 59.4071 7.1775 61.0678C7.72752 61.7285 8.41426 62.2617 9.19029 62.6308C9.96632 62.9999 10.8131 63.1959 11.6723 63.2054C15.3022 63.2054 17.8379 60.4318 17.8379 56.4627C17.8379 53.9363 16.32 52.2521 14.8492 50.6268C13.1548 48.7541 11.5605 46.9816 11.5605 43.6426C11.5605 40.4508 13.0489 37.3591 14.5315 35.0801C14.828 37.3836 15.7983 39.5479 17.3204 41.3008C18.8424 43.0538 20.8482 44.3172 23.0857 44.9322L25.4389 45.4269L25.1095 43.0713C24.9645 41.5878 25.0279 40.0912 25.2977 38.6252C25.9377 35.101 27.4667 31.7989 29.7396 29.0322C30.4632 28.1312 31.2457 27.1949 32.0046 26.2998C36.1522 21.3531 40.4352 16.2357 40.4352 10.6353C40.4243 8.3381 40.0531 6.05683 39.3351 3.87489C49.3365 10.3527 49.1188 18.7326 47.9363 23.4672C47.4362 25.4636 46.0243 32.2417 48.7776 35.775C49.3126 36.454 50 36.9972 50.784 37.3604C51.5681 37.7236 52.4266 37.8967 53.29 37.8656C55.4374 37.8656 58.4025 36.9469 60.3498 32.5656C60.5598 32.1036 60.7425 31.6297 60.897 31.1463C65.4917 37.2119 64.0974 42.6532 61.9148 46.3161C59.4615 50.4383 58.832 54.5606 60.2733 57.1104C60.7178 57.8691 61.3626 58.4904 62.1369 58.9059C62.9112 59.3215 63.785 59.5153 64.6622 59.466C65.464 59.4764 66.2586 59.3134 66.9917 58.9881C67.7247 58.6629 68.379 58.1831 68.9099 57.5816C70.4689 55.8502 71.1278 53.1649 71.3691 50.7446C73.9167 54.8026 75.2724 59.4962 75.2814 64.289C75.3049 70.0778 73.1811 78.9111 67.2979 86.3606H67.2802Z" fill="black"/>
</g>
<defs>
<clipPath id="clip0_84_750">
<rect width="82" height="106" fill="white"/>
</clipPath>
</defs>
</svg>
