<svg width="96" height="84" viewBox="0 0 96 84" fill="none" xmlns="http://www.w3.org/2000/svg">
<g clip-path="url(#clip0_84_788)">
<path d="M7.54133 40.2263C3.20027 35.8907 0.761486 30.0104 0.761486 23.879C0.761486 17.7476 3.20027 11.8673 7.54133 7.53178C11.8824 3.19622 17.7701 0.760533 23.9093 0.760533C30.0485 0.760533 35.9363 3.19622 40.2773 7.53178L45.712 12.9596L51.1413 7.53178C55.4824 3.19411 61.371 0.756382 67.5117 0.754884C73.6524 0.753385 79.5422 3.18823 83.8853 7.52379C88.2285 11.8594 90.6693 17.7405 90.6708 23.8734C90.6724 30.0063 88.2344 35.8886 83.8933 40.2263L78.9973 45.1267L45.7227 78.3592L7.54133 40.2263Z" fill="#F24E1E"/>
<path d="M89.0027 11.5587C88.2355 10.7943 87.4177 10.0825 86.5547 9.42804C84.4889 6.71407 81.8655 4.47309 78.8607 2.85568C75.8559 1.23827 72.5392 0.281885 69.1336 0.0507932C65.728 -0.180298 62.3123 0.319253 59.1161 1.51588C55.9198 2.71251 53.017 4.5785 50.6027 6.98847L45.712 11.8783L40.816 6.98847C36.3321 2.51023 30.2506 -0.00561523 23.9093 -0.00561523C17.5681 -0.00561523 11.4866 2.51023 7.00267 6.98847C2.51874 11.4667 -0.000305176 17.5405 -0.000305176 23.8737C-0.000305176 30.2069 2.51874 36.2807 7.00267 40.7589L11.8987 45.6487L14.2827 48.035L16.4693 50.2136L31.568 65.3038L45.7227 79.4352L50.2987 84L84.1067 50.2296L89.0027 45.3291C93.4828 40.8488 95.9991 34.7758 95.9991 28.4439C95.9991 22.112 93.4828 16.0389 89.0027 11.5587ZM8.08 8.06977C12.28 3.8803 17.9733 1.52712 23.9093 1.52712C29.8454 1.52712 35.5387 3.8803 39.7387 8.06977L44.6347 12.9596L45.7013 14.0249L46.768 12.9596L51.6587 8.06977C55.8952 4.06202 61.5305 1.86363 67.3653 1.94239C73.2002 2.02115 78.7739 4.37086 82.9005 8.4915C87.027 12.6121 89.3807 18.1784 89.4605 24.0058C89.5404 29.8332 87.3401 35.4617 83.328 39.6936L78.4373 44.5887L45.7227 77.2832L12.976 44.5781L8.08 39.6883C3.88521 35.4936 1.52904 29.8075 1.52904 23.879C1.52904 17.9505 3.88521 12.2645 8.08 8.06977Z" fill="black"/>
</g>
<defs>
<clipPath id="clip0_84_788">
<rect width="96" height="84" fill="white"/>
</clipPath>
</defs>
</svg>
