<svg width="90" height="77" viewBox="0 0 90 77" fill="none" xmlns="http://www.w3.org/2000/svg">
<g clip-path="url(#clip0_84_800)">
<path d="M51.84 18.741C57.0093 15.3501 63.0694 13.5543 69.26 13.5792C75.453 13.5533 81.5155 15.351 86.685 18.746C86.58 18.4125 86.47 18.0939 86.36 17.7505C82.835 7.53625 76.5 0.706848 69.255 0.706848C62.01 0.706848 55.685 7.53127 52.165 17.7555C52.055 18.079 51.945 18.4175 51.84 18.741Z" fill="#C7B9FF"/>
<path d="M49.23 36.3372C49.223 39.9531 49.5359 43.5626 50.165 47.1239C52.73 61.5592 60.31 71.9775 69.26 71.9775C78.21 71.9775 85.79 61.5244 88.355 47.1239C88.9817 43.5623 89.2945 39.953 89.29 36.3372C89.3078 31.4914 88.737 26.6611 87.59 21.9517C87.32 20.8566 87.015 19.7914 86.69 18.751C81.5199 15.3527 75.4553 13.5533 69.26 13.5792C63.0696 13.5555 57.0098 15.3512 51.84 18.7411C51.51 19.7715 51.21 20.8417 50.935 21.9367C49.7839 26.6506 49.2114 31.4861 49.23 36.3372Z" fill="white"/>
<path d="M7.65001 18.741C12.8302 15.3711 18.8844 13.5765 25.0725 13.5765C31.2607 13.5765 37.3148 15.3711 42.495 18.741C42.39 18.4075 42.275 18.0889 42.165 17.7455C38.665 7.51629 32.3 0.68689 25.065 0.68689C17.83 0.68689 11.5 7.53122 8 17.7554C7.87 18.079 7.755 18.4174 7.65001 18.741Z" fill="#C7B9FF"/>
<path d="M5.04 36.3372C5.03547 39.953 5.34832 43.5623 5.975 47.1238C8.545 61.5592 16.125 71.9775 25.07 71.9775C34.015 71.9775 41.6 61.5243 44.17 47.1238C44.7967 43.5623 45.1095 39.953 45.105 36.3372C45.1212 31.4911 44.5487 26.6609 43.4 21.9516C43.135 20.8565 42.83 19.7913 42.5 18.751C37.3202 15.3798 31.2659 13.5845 25.0775 13.5845C18.8891 13.5845 12.8348 15.3798 7.655 18.751C7.32 19.7813 7.02 20.8515 6.75 21.9466C5.59797 26.6571 5.02378 31.4892 5.04 36.3372Z" fill="white"/>
<path d="M1.73003 26.0831C2.01003 24.9432 2.32002 23.8481 2.64502 22.8377C2.75502 22.5042 2.86503 22.1707 2.98003 21.8421C5.30003 15.0974 8.70502 10.0301 12.685 7.11811C16.195 2.5436 20.5 0 25.07 0C32.42 0 39.07 6.55563 42.845 17.5364V17.5912C42.95 17.9048 43.06 18.2184 43.16 18.5369C43.52 19.6868 43.82 20.747 44.07 21.7824C44.6356 24.0393 45.0631 26.3282 45.35 28.6367C45.52 27.7755 45.705 26.9244 45.915 26.0831C46.2 24.9432 46.505 23.8481 46.835 22.8377C46.94 22.5042 47.055 22.1707 47.165 21.8421C49.5 15.0974 52.885 10.0301 56.87 7.11811C60.375 2.5436 64.68 0 69.26 0C76.605 0 83.25 6.55563 87.035 17.5364V17.5912C87.145 17.9048 87.25 18.2184 87.35 18.5369C87.73 19.6868 88 20.747 88.28 21.7824C89.4414 26.5471 90.019 31.4343 90 36.3372C90.0042 39.9947 89.688 43.6455 89.055 47.2483C87.185 57.7413 82.83 65.845 77.31 69.8769C73.81 74.4016 69.525 77 64.93 77C55.8 77 47.845 66.7758 45.135 51.559C44.945 50.5037 44.79 49.4385 44.635 48.3583C42.665 58.3137 38.42 65.9993 33.095 69.8819C29.595 74.4016 25.32 77 20.72 77C11.595 77 3.64002 66.7758 0.925026 51.559C0.298531 47.9573 -0.0109787 44.3081 2.28882e-05 40.6529C-0.0218277 35.7442 0.559151 30.8514 1.73003 26.0831ZM69.26 1.41367C62.84 1.41367 56.725 7.3869 53.155 17.1034C58.0581 14.3121 63.612 12.853 69.26 12.8723C74.9127 12.8519 80.4709 14.3147 85.375 17.1133C81.8 7.40184 75.68 1.41367 69.26 1.41367ZM87.43 48.204C85.958 50.1183 83.8996 51.5029 81.5663 52.1482C79.2331 52.7935 76.7523 52.6643 74.4994 51.7803C72.2465 50.8962 70.3443 49.3054 69.0809 47.2488C67.8174 45.1922 67.2616 42.7817 67.4974 40.3824C67.7333 37.9831 68.748 35.7256 70.388 33.9518C72.028 32.1781 74.2038 30.9846 76.5861 30.5521C78.9684 30.1197 81.4274 30.4718 83.5907 31.5552C85.754 32.6386 87.5037 34.3942 88.575 36.5562C88.575 36.4865 88.575 36.4119 88.575 36.3372C88.5964 31.5484 88.0339 26.7748 86.9 22.1209C86.67 21.1851 86.4 20.2294 86.085 19.204C81.0777 15.9679 75.2298 14.2585 69.26 14.286C63.295 14.2604 57.4518 15.9659 52.445 19.194C52.155 20.1099 51.88 21.0855 51.625 22.106C50.4842 26.7638 49.9183 31.5429 49.94 36.3372C49.9348 39.9111 50.2426 43.4787 50.86 46.9994C53.45 61.5194 60.86 71.2707 69.26 71.2707C77.445 71.2707 84.66 62.047 87.43 48.1941V48.204ZM25.07 1.41367C18.655 1.41367 12.535 7.3869 8.96502 17.1034C13.8762 14.327 19.4272 12.8674 25.075 12.8674C30.7228 12.8674 36.2738 14.327 41.185 17.1034C37.61 7.40184 31.5 1.41367 25.07 1.41367ZM43.245 48.204C41.7779 50.1174 39.7255 51.504 37.3975 52.1544C35.0694 52.8048 32.5921 52.6839 30.3392 51.8098C28.0862 50.9357 26.18 49.3559 24.9079 47.3088C23.6359 45.2616 23.0671 42.8581 23.2874 40.461C23.5077 38.0638 24.5051 35.803 26.1292 34.0196C27.7532 32.2362 29.9158 31.027 32.2906 30.5744C34.6655 30.1218 37.1237 30.4504 39.2946 31.5106C41.4654 32.5707 43.231 34.305 44.325 36.4517L44.385 35.6851C44.3553 31.1177 43.7932 26.5692 42.71 22.1308C42.485 21.195 42.21 20.2393 41.9 19.2139C36.8808 16.0062 31.0419 14.3009 25.0775 14.3009C19.1131 14.3009 13.2742 16.0062 8.25502 19.2139C7.96502 20.1298 7.69003 21.1054 7.44003 22.1259C6.29903 26.7771 5.73152 31.5493 5.75002 36.3372C5.74644 39.9113 6.05595 43.4789 6.67503 46.9994C9.26003 61.5194 16.675 71.2707 25.07 71.2707C33.255 71.2707 40.47 62.047 43.245 48.1941V48.204Z" fill="black"/>
<path d="M30.52 41.7479C28.217 41.7479 26.35 39.8893 26.35 37.5965C26.35 35.3038 28.217 33.4451 30.52 33.4451C32.823 33.4451 34.69 35.3038 34.69 37.5965C34.69 39.8893 32.823 41.7479 30.52 41.7479Z" fill="white"/>
<path d="M74.705 41.7479C72.402 41.7479 70.535 39.8893 70.535 37.5965C70.535 35.3038 72.402 33.4451 74.705 33.4451C77.008 33.4451 78.875 35.3038 78.875 37.5965C78.875 39.8893 77.008 41.7479 74.705 41.7479Z" fill="white"/>
</g>
<defs>
<clipPath id="clip0_84_800">
<rect width="90" height="77" fill="white" transform="matrix(-1 0 0 1 90 0)"/>
</clipPath>
</defs>
</svg>
