<svg width="283" height="304" viewBox="0 0 283 304" fill="none" xmlns="http://www.w3.org/2000/svg">
<path fill-rule="evenodd" clip-rule="evenodd" d="M6.91905 163.958C10.9515 164.357 14.984 164.757 19.0164 165.156C38.3289 166.646 57.6338 169.757 76.7984 171.625C77.2756 170.841 78.2096 170.97 78.7766 171.515C80.689 171.346 82.8323 169.87 84.5645 171.405C84.6208 171.397 84.6771 171.388 84.7339 171.382C87.8182 165.405 89.9502 159.03 92.0194 152.646C93.3401 148.721 95.117 144.922 98.4007 142.287C104.005 138.359 116.844 130.394 123.425 130.729C123.534 129.54 124.083 128.314 124.985 127.521C122.997 124.1 130.944 121.868 131.505 122.265C131.146 110.834 136.471 100.908 148.213 98.6316C158.732 96.4184 173.694 96.0466 179.352 107.146C179.974 107.076 186.331 107.042 186.946 107.112C187.902 105.889 198.404 117.477 194.1 121.511C232.583 138.7 254.464 136.649 265.116 184.969C266.556 189.509 266.66 194.476 268.181 198.914C273.591 211.668 277.978 225.249 279.07 239.127C281.708 239.809 282.011 244.504 278.956 245.184C277.789 245.443 276.814 245.798 275.963 246.471C276.628 257.843 273.904 283.823 272.187 283.743C268.687 294.989 253.076 298.163 242.024 294.211C243.929 297.83 242.024 300.105 242.024 302.039C202.255 303.558 159.467 301.148 119.709 303.231C114.623 303.158 112.826 303.231 106.709 303.231C100.592 303.231 100.498 299.663 103.601 299.063L90.0425 296.089C90.3456 295.974 84.4536 292.017 80.0005 284.622C75.8556 276.351 78.6766 266.366 76.7984 257.369C62.1295 256.158 47.2181 255.64 32.7098 253.131C30.7316 259.107 22.1683 251.96 19.4464 249.085C19.4497 249.081 19.4531 249.077 19.4565 249.072C18.1392 248.708 17.0829 247.462 17.0475 245.986C16.1237 244.653 15.9298 242.775 16.8157 241.487C12.7553 217.83 6.56513 193.676 4.3277 169.797C3.53676 169.62 2.7919 169.27 2.16039 168.731L2.21156 168.679C1.14161 167.475 0.933548 165.396 2.71727 164.372C4.15611 163.546 5.35751 163.803 6.91905 163.958Z" fill="#E3AB85"/>
<path fill-rule="evenodd" clip-rule="evenodd" d="M160.283 252.498L157.177 254.494L131.761 262.763L116.229 264.759L103.522 262.763V284.718L101.207 303.231C105.17 303.145 115.093 303.375 133.209 303.231C147.516 303.117 192.127 303.979 204.209 303.231H205.209C219.209 303.231 229.209 303.231 242.461 303.231V295.268L207.161 277.59L175.533 259.627L160.283 252.498ZM178.292 105.352L175.958 107.112L181.054 115.566L156.228 135.842V152.037L148.368 159.543L143.875 152.037L137.545 143.537L133.046 129.758L134.578 120.681L131.497 120.388C131.483 121.008 131.485 121.634 131.505 122.265C130.944 121.868 122.997 124.1 124.985 127.521C124.083 128.314 123.534 129.54 123.425 130.729C116.844 130.394 104.005 138.359 98.4007 142.287C95.117 144.922 93.3401 148.721 92.0194 152.646L91.7084 153.603L91.3874 154.586L91.0639 155.568C89.2769 160.967 87.3472 166.318 84.7339 171.382C84.6771 171.388 84.6208 171.397 84.5645 171.405C82.8323 169.87 80.689 171.346 78.7766 171.515C78.2228 170.982 77.3188 170.847 76.8325 171.572L76.7984 171.625L100.625 176.364L116.343 232.034L130.031 220.815L137.379 221.918L156.782 228.984L179.349 234.903L230.867 249.243H237.427L275.603 239.935L279.043 238.789C277.907 225.028 273.547 211.564 268.181 198.914C266.66 194.476 266.556 189.509 265.116 184.969C254.464 136.649 232.583 138.7 194.1 121.511C198.404 117.477 187.902 105.889 186.946 107.112L186.886 107.107L186.755 107.1L186.587 107.094C185.086 107.05 179.91 107.083 179.352 107.146C179.028 106.511 178.674 105.914 178.292 105.352Z" fill="#FFCF77"/>
<path fill-rule="evenodd" clip-rule="evenodd" d="M3.11082 165.648L3.82052 169.641C3.98918 169.697 4.16079 169.744 4.33463 169.783C4.55767 172.163 4.82 174.547 5.11558 176.932L9.51556 201.692C10.2745 206.073 10.9949 210.463 11.7101 214.854L13.2447 222.503C14.5117 228.851 15.7425 235.18 16.8226 241.473C16.6596 241.71 16.5332 241.966 16.4411 242.236L16.5242 242.591L16.582 242.828L16.6411 243.061C17.4933 246.369 18.9762 249.576 22.4708 250.55C25.1067 251.284 27.999 251.35 30.7209 251.64L31.0226 251.673L78.6512 257.081C84.4062 257.734 90.1585 258.407 95.9103 259.087L100.896 259.678C107.846 260.49 114.836 261.13 121.684 262.601C121.935 262.655 122.144 262.757 122.314 262.89C120.935 257.62 119.615 252.357 118.419 247.033C117.072 241.042 115.794 235.039 114.354 229.069C111.453 217.042 108.2 205.094 104.64 193.249C103.893 190.763 103.128 188.282 102.347 185.807L101.799 184.076L101.377 182.698C100.724 180.595 99.9162 178.434 98.0018 177.275C95.7614 175.917 92.7063 175.692 90.1653 175.223L88.4446 174.897C85.8702 174.412 83.2924 173.945 80.7116 173.497C68.355 171.351 55.9285 169.63 43.4562 168.337C30.4778 166.991 17.4542 166.117 4.41481 165.689L3.11082 165.648ZM121.327 248.205L121.205 248.215L122.984 262.575C123.269 262.374 123.63 262.251 124.071 262.252C129.906 262.269 135.5 260.386 140.911 258.316L141.735 257.999L144.032 257.107C146.367 256.204 148.715 255.321 151.106 254.588L152.073 254.293L152.564 254.147C154.375 253.613 156.279 253.128 158.163 253.007L158.419 252.993L157.871 252.703C157.791 252.66 157.72 252.612 157.658 252.561C156.621 252.639 155.583 252.618 154.489 252.419C152.433 252.045 150.433 251.323 148.597 250.317L147.777 249.868L147.441 249.688L147.219 249.572L146.999 249.46C145.422 248.666 143.914 248.169 141.923 248.592C139.663 249.072 137.682 250.302 135.644 251.341L135.283 251.523L135.039 251.642L134.792 251.759L134.541 251.875C131.785 253.127 127.4 254.478 126.344 250.696C125.919 249.176 126.252 247.753 126.988 246.505C125.616 246.385 123.164 248.019 121.327 248.205ZM52.739 200.894L52.7058 201.067C52.3162 203.184 53.2933 205.21 54.7719 206.687C55.9848 207.898 58.1313 208.572 58.7393 210.314C59.0855 211.305 58.7172 212.246 58.0062 212.901L58.1699 212.983L58.33 213.065L58.4864 213.149L58.6388 213.233L58.7872 213.318C61.2028 214.719 63.17 216.998 60.9914 219.75C58.5199 222.872 53.3557 222.973 49.7172 222.729L49.4721 222.712C45.944 222.445 41.7648 221.248 39.8518 217.959C38.9744 216.45 39.0709 214.625 40.294 213.334C41.0319 212.555 42.3481 211.755 43.5551 211.66C43.5023 210.974 43.5833 210.31 43.8225 209.751C44.3399 208.541 45.7166 207.726 47.0444 207.697C46.9369 205.128 48.9747 202.592 50.4752 200.539L50.6284 200.328L50.7771 200.121C51.4656 199.154 52.9386 199.695 52.739 200.894ZM50.7257 203.629L49.3586 208.799L49.3821 208.842C49.8636 209.765 48.6013 210.813 47.8526 210.037L47.7772 209.955C46.8886 209.029 45.5246 210.274 45.5076 211.26C45.4833 212.649 46.3785 213.722 47.445 214.431L47.5197 214.48L47.7163 214.604C48.5916 215.188 47.9289 216.409 46.9667 216.26C45.7761 216.076 44.8005 215.123 44.199 213.932C43.5562 214.118 42.8248 214.096 42.1479 214.478C40.4422 215.441 41.4232 217.126 42.5339 218.145L42.579 218.186L42.6695 218.265C44.7073 220.02 47.4819 220.629 50.0972 220.76L50.2479 220.767C52.8897 220.881 56.3315 220.919 58.5958 219.35C60.005 218.374 60.413 216.99 59.2205 215.678C58.5461 214.937 57.8652 214.19 57.1643 213.467C56.1152 213.973 55.1782 213.768 54.1054 213.289C53.9679 213.228 54.0441 213.015 54.1788 213.015C54.7707 213.015 56.9427 211.905 57.0483 211.196C57.1459 210.54 55.9444 209.987 55.3602 209.67L55.2754 209.623L55.202 209.58C54.5909 209.206 54.0156 208.771 53.4898 208.283C52.1552 207.042 51.186 205.486 50.7627 203.784L50.7257 203.629Z" fill="white"/>
<path fill-rule="evenodd" clip-rule="evenodd" d="M178.619 104.568C177.42 101.528 173.37 102.71 173.822 105.904C174.092 107.817 175.13 109.838 176.062 111.515C176.821 112.88 177.687 114.212 178.861 115.235C176.771 117.203 174.602 119.1 172.378 120.901C169.951 122.866 167.399 124.677 164.761 126.342C162.448 127.801 160.03 129.095 157.85 130.76C155.823 132.309 153.976 134.171 153.036 136.603C152.035 139.192 152.47 141.866 153.207 144.453L153.292 144.746C154.045 147.309 155.349 150.399 153.541 152.814C152.62 154.043 151.282 154.914 150.127 155.897C149.1 156.771 148.137 157.721 147.253 158.741C145.325 160.966 143.758 163.469 142.769 166.258L142.68 166.511C141.832 168.98 141.212 172.005 142.358 174.429C142.687 175.124 143.747 174.898 143.931 174.222C144.347 172.689 144.326 171.084 144.675 169.529C145.038 167.912 145.642 166.378 146.431 164.926C147.959 162.117 150.027 159.718 152.47 157.69L153.202 157.089C155.108 155.509 156.859 153.834 157.246 151.22C157.66 148.423 156.551 145.759 155.837 143.111C155.34 141.267 155.177 139.498 155.715 137.831C156.371 138.913 157.267 139.94 157.976 140.856C159.387 142.681 160.811 144.495 162.232 146.313C163.688 148.176 165.109 150.069 166.462 152.011C167.067 152.88 167.666 153.754 168.263 154.629C168.711 155.286 169.337 155.943 169.826 156.614C169.707 156.973 169.716 157.386 169.932 157.68C172.526 161.218 176.216 153.835 177.178 151.97C179.138 148.171 180.597 144.135 182.563 140.337C184.6 136.4 186.921 132.568 189.506 128.974C191.071 126.8 192.824 124.758 194.255 122.515C197.626 125.601 202.062 127.67 206.136 129.546C210.613 131.607 215.263 133.291 219.853 135.079L221.209 135.61C229.118 138.727 237.219 142.15 243.793 147.685C251.517 154.19 256.087 163.256 259.489 172.644C263.405 183.452 266.645 194.552 269.665 205.644C271.211 211.32 272.677 217.021 274.056 222.74C275.271 227.779 276.278 232.868 277.684 237.855C274.832 237.753 271.579 238.868 269.144 239.19C258.046 240.657 247.098 242.995 236.62 247.043C235.326 247.543 234.951 248.848 235.233 249.906C234.487 249.693 233.741 249.477 232.994 249.266C233.812 248.001 233.422 245.739 233.357 244.337L233.354 244.24C233.287 242.372 233.087 240.501 232.957 238.636C232.709 235.081 232.386 231.552 231.957 228.017L231.847 227.133C231.361 223.287 231.001 219.419 230.471 215.58L230.408 215.14C230.663 214.158 230.959 213.188 231.27 212.222C232.098 209.648 233.268 207.226 234.293 204.734C234.413 204.441 233.999 204.272 233.806 204.448C232.07 206.024 230.692 208.024 229.584 210.116C229.565 210.017 229.548 209.918 229.528 209.82L229.402 209.192C229.09 207.66 228.711 206.048 227.78 204.806C227.681 204.674 227.485 204.646 227.391 204.806C226.501 206.328 226.401 208.255 226.264 209.987C226.109 211.945 226.089 213.929 226.117 215.893C226.17 219.732 226.438 223.582 226.652 227.414C226.861 231.18 227.272 234.898 227.803 238.627L227.903 239.327C228.162 241.102 228.375 242.899 228.716 244.661L228.813 245.141C228.996 246.016 229.108 247.248 229.472 248.272C220.114 245.637 210.741 243.061 201.351 240.531C194.564 238.703 187.77 236.901 180.979 235.088C180.621 234.436 180.175 233.827 179.618 233.283C177.783 231.489 175.352 230.688 173.122 232.069C172.94 232.182 172.925 232.469 173.122 232.577C173.549 232.813 173.977 233.055 174.397 233.307L170.32 232.192C167.272 231.358 164.187 230.316 161.068 229.734C155.322 226.871 149.142 224.799 143.089 222.751L142.376 222.507C139.277 221.441 136.071 220.246 132.869 219.655C130.525 219.222 127.773 219.744 126.83 222.169C125.637 222.963 124.514 223.896 123.431 224.814C122.647 225.477 121.896 226.183 121.133 226.869L120.992 226.994C120.368 227.541 119.873 227.907 119.72 228.777C119.641 229.227 119.924 229.835 120.473 229.775C122.154 229.594 123.52 227.627 124.66 226.453C125.54 225.545 126.428 224.606 127.232 223.608C127.7 223.866 128.342 223.82 128.641 223.249C130.187 220.293 134.423 222.342 136.767 223.043L140.125 224.046C141.803 224.549 143.482 225.053 145.157 225.567C149.761 226.979 154.343 228.559 158.988 229.855C158.573 230.317 158.63 231.137 159.42 231.449C163.056 232.89 167.046 233.635 170.824 234.624C173.21 235.249 175.594 235.877 177.977 236.509C178.385 237.177 178.679 237.934 178.803 238.814C179.258 242.05 178.381 245.784 177.526 248.914L177.398 249.381C176.695 251.898 175.662 254.983 173.512 256.572C172.987 256.96 172.318 257.229 171.644 257.29C167.435 255.103 163.225 252.915 159.013 250.732C158.233 250.327 157.512 250.875 157.337 251.526C155.852 251.28 154.37 250.892 153.021 250.43C150.753 249.652 148.982 248.169 146.856 247.144C142.743 245.16 138.542 247.597 134.86 249.449L134.011 249.871C132.359 250.68 128.923 252.234 128.131 250.021C127.364 247.88 129.788 245.592 131.353 244.629C133.218 243.48 135.39 242.865 137.499 242.353C138.703 242.061 139.921 241.822 141.147 241.648C142.538 241.45 143.974 241.48 145.313 241.025C145.978 240.799 146.08 239.732 145.313 239.556C143.252 239.082 140.792 239.599 138.641 240.127L137.517 240.406C135.35 240.943 133.163 241.617 131.189 242.688C129.754 243.467 128.239 244.65 127.249 246.099C126.39 245.293 125.321 245.32 124.207 245.619L123.602 245.788C122.603 246.068 121.794 246.26 120.822 246.067C120.692 245.353 120.561 244.639 120.42 243.925C119.035 236.907 117.517 229.915 115.841 222.961C112.951 210.967 109.607 199.104 105.837 187.362L105.459 186.188C104.589 183.503 103.89 180.577 102.488 178.109C101.162 175.776 99.0378 174.433 96.514 173.721C93.6499 172.913 90.6405 172.491 87.7188 171.945C87.067 171.824 86.4136 171.709 85.7612 171.589C86.3125 170.584 86.724 169.443 87.0946 168.568L87.1596 168.416C87.9559 166.583 88.6712 164.717 89.3619 162.841L89.8786 161.431C91.1258 158.035 92.4132 154.694 94.1667 151.518C96.0125 148.175 98.4611 145.442 101.514 143.18C107.737 138.568 115.238 136.215 121.274 131.286C121.522 131.084 121.205 130.739 120.954 130.867C116.878 132.935 112.478 134.341 108.239 136.024L107.402 136.357C104.052 137.698 100.649 139.158 97.7484 141.33C94.5149 143.751 91.9683 146.758 90.0542 150.334C88.1678 153.859 86.9611 157.804 85.6302 161.569L85.2742 162.572C84.7374 164.076 84.1829 165.576 83.5475 167.04C83.0432 168.202 82.1019 169.529 81.6741 170.856C80.5036 170.651 79.3333 170.446 78.1617 170.248C52.7836 165.97 27.1219 163.456 1.40328 162.721C0.3971 162.692 -0.12335 163.662 0.0249076 164.548C2.49305 179.284 4.68642 194.07 7.093 208.817C8.14351 215.253 9.21493 221.684 10.3115 228.113C10.8669 231.369 11.5091 234.614 12.0352 237.875C12.4599 240.509 12.7683 243.164 13.4975 245.737C14.1515 248.044 15.1551 250.268 16.8035 252.028C18.5803 253.926 21.0603 254.844 23.5567 255.278C29.8939 256.379 36.3941 256.829 42.7828 257.562L76.7966 261.47C76.2995 266.031 76.2623 270.522 76.4904 275.137L76.6204 277.656C76.7266 279.682 76.8537 281.712 77.1419 283.717C77.5034 286.233 78.6431 288.363 80.322 290.242C81.8636 291.968 83.7364 293.44 85.5582 294.851C87.4491 296.316 89.403 297.73 91.6263 298.636L91.9149 298.751C93.8653 299.52 97.5242 300.711 100.19 300.276C100.209 301.731 99.5924 301.487 100.19 303.231C102.209 303.231 102.209 303.231 104.233 303.231C105.507 301.865 103.107 303.033 103.409 301.251C103.722 299.397 103.993 297.536 104.233 295.67C104.698 292.063 105.06 288.423 105.17 284.785C105.284 281.049 105.24 277.308 105.041 273.576C104.938 271.66 104.811 269.745 104.57 267.841C104.467 267.029 104.362 266.216 104.242 265.406C104.199 265.111 104.15 264.817 104.098 264.523L107.151 264.871C111.832 265.399 116.515 265.875 121.23 265.949C121.788 265.958 122.217 265.701 122.498 265.327C122.797 265.819 123.318 266.171 124.064 266.168C130.647 266.143 136.778 263.97 142.766 261.408C145.784 260.117 148.756 258.718 151.778 257.438C154.6 256.243 157.616 255.39 160.369 254.043L167.604 257.875C167.658 258.063 167.726 258.242 167.798 258.391C168.269 259.362 169.198 259.888 170.146 260.285C171.057 260.666 172 260.785 172.918 260.689C178.405 263.592 183.894 266.492 189.386 269.386L194.879 272.277C205.823 278.031 216.725 283.879 227.738 289.497L228.549 289.909C232.353 291.835 236.438 293.788 240.659 295.244C240.735 296.323 240.687 297.373 240.598 298.514L240.576 298.763C240.45 300.113 240.18 301.804 241.252 302.764C241.81 303.264 242.498 303.879 243.186 302.513C243.874 301.147 243.256 298.993 243.038 297.509C242.961 296.981 242.866 296.438 242.727 295.912C247.567 297.367 252.553 298.072 257.478 297.255C262.273 296.461 265.987 293.411 268.981 289.68C272.14 285.743 274.386 281.155 275.59 276.237C276.961 270.641 277.051 264.861 277.019 259.128C276.985 253.024 276.761 246.889 276.026 240.826C276.831 240.635 277.725 240.47 278.539 240.527C278.942 241.178 279.724 241.452 280.431 241.368C281.968 243.079 278.07 244.829 276.824 245.267C276.391 245.419 276.437 246.128 276.936 246.107L277.251 246.092C279.176 245.988 281.165 245.656 282.297 243.85C283.204 242.402 282.931 240.687 281.85 239.506C281.136 232.688 279.428 226.049 277.839 219.398C276.28 212.87 274.546 206.384 272.708 199.93L271.884 197.042C268.99 186.923 265.965 176.723 261.972 167.006C259.979 162.154 257.683 157.392 254.57 153.161C251.668 149.217 248.242 145.843 244.305 142.961C236.964 137.587 228.35 134.341 219.887 131.247L219.508 131.109C215.122 129.507 210.747 127.886 206.411 126.151C202.576 124.616 198.902 122.67 195.086 121.112C195.21 120.884 195.329 120.655 195.445 120.422L195.515 120.482C195.527 120.492 195.54 120.501 195.553 120.51C195.936 120.779 196.501 120.647 196.818 120.345C197.711 119.494 197.408 118.55 196.812 117.668L196.735 117.555C196.006 116.524 195.355 115.434 194.682 114.365L194.261 113.697C193.131 111.911 191.944 110.114 190.438 108.638C189.741 107.955 188.977 107.443 188.168 107.062C188.237 106.914 187.631 106.612 187.459 106.764C184.895 105.817 181.946 106.016 179.152 106.277M78.4424 261.658L82.0062 262.068C85.927 262.518 89.8493 262.954 93.7721 263.385L102.293 264.32C102.314 264.81 102.373 265.29 102.384 265.66C102.44 267.57 102.481 269.48 102.521 271.39C102.599 275.219 102.513 279.051 102.263 282.873C102.021 286.575 101.703 290.279 101.207 293.956L101.106 294.691L101.047 295.078C100.643 295.117 100.246 295.311 99.9161 295.71C99.1954 296.578 96.5858 295.734 95.5666 295.368C93.8906 294.766 92.3123 293.748 90.8559 292.728C89.4337 291.732 88.1531 290.57 86.9225 289.347L85.9156 288.341C84.914 287.336 83.9113 286.266 83.2976 285.002C82.4654 283.287 82.3578 281.183 82.1138 279.316C81.8133 277.02 81.4555 274.724 81.0774 272.439M181.9 237.553L182.269 237.651C195.697 241.254 209.106 244.963 222.575 248.406C229.241 250.111 235.938 251.691 242.612 253.363L243.692 253.636C248.957 254.979 254.286 256.596 258.317 260.452C258.466 260.594 258.682 260.376 258.542 260.225C254.197 255.555 248.017 253.577 242.083 251.864C240.986 251.547 239.888 251.237 238.791 250.922C246.861 248.018 255.058 245.491 263.444 243.688C265.604 243.224 267.788 242.883 269.946 242.418C271.451 242.092 272.921 241.622 274.41 241.233L275.581 240.935L275.596 244.673C275.616 249.966 275.607 255.255 275.339 260.548L275.288 261.528C274.976 267.418 274.489 273.431 272.419 278.984C270.737 283.497 268.056 287.749 264.549 291.036C262.775 292.699 260.867 293.994 258.509 294.633C256.32 295.227 254.026 295.296 251.775 295.138C240.979 294.378 231.369 288.456 221.992 283.554C206.653 275.535 191.312 267.52 175.958 259.532C176.373 259.246 176.764 258.916 177.119 258.545C179.178 256.398 180.264 253.459 180.978 250.612C181.737 247.582 182.191 244.335 182.244 241.207M162.363 262.628C162.227 262.554 162.07 262.646 162.064 262.801C162.016 263.985 162.664 265.153 163.149 266.219L163.2 266.333C163.788 267.655 164.432 268.958 165.098 270.241C166.43 272.805 167.814 275.341 169.258 277.841C172.162 282.871 175.389 287.69 179.204 292.069C180.065 293.059 181.482 291.79 180.93 290.725C178.264 285.59 175.156 280.741 171.957 275.935C170.355 273.528 168.755 271.119 167.138 268.724C166.463 267.724 165.78 266.728 165.078 265.747L164.655 265.16M3.10389 165.662C16.579 166.073 30.0383 166.96 43.4493 168.351C55.9216 169.644 68.3481 171.365 80.7047 173.511C83.2855 173.959 85.8632 174.426 88.4377 174.911L89.9819 175.204C92.5568 175.697 95.7024 175.9 97.9949 177.289C100.412 178.753 101.065 181.813 101.869 184.336C102.815 187.304 103.736 190.28 104.633 193.263C108.193 205.109 111.446 217.056 114.347 229.083C115.787 235.053 117.065 241.056 118.412 247.047C119.608 252.371 120.928 257.634 122.307 262.904C122.137 262.771 121.928 262.669 121.677 262.615C114.829 261.144 107.839 260.505 100.89 259.692L100.217 259.613C93.0276 258.759 85.838 257.912 78.6443 257.095L31.0156 251.687C28.2066 251.368 25.1974 251.325 22.4638 250.564C17.8162 249.269 16.7269 244.023 15.9471 239.845L15.9235 239.719C13.5726 227.095 11.7012 214.362 9.50863 201.706M121.198 248.23C123.047 248.106 125.578 246.396 126.981 246.519C126.245 247.767 125.912 249.19 126.337 250.71C127.518 254.939 132.86 252.751 135.433 251.459C137.543 250.399 139.58 249.102 141.916 248.606C144.562 248.044 146.355 249.106 148.59 250.331C150.426 251.337 152.426 252.059 154.482 252.433C155.576 252.632 156.614 252.653 157.651 252.575C157.713 252.627 157.784 252.674 157.864 252.717L158.412 253.007C155.933 253.122 153.407 253.895 151.099 254.602C148.708 255.335 146.36 256.218 144.025 257.121L141.728 258.013C136.062 260.204 130.196 262.284 124.064 262.266C123.623 262.265 123.262 262.388 122.977 262.589M131.544 234.978C129.717 234.753 128.031 234.995 126.571 236.195C124.811 237.643 123.628 240.045 121.097 240.202C120.359 240.248 120.188 241.296 120.921 241.515C122.805 242.078 124.331 241.049 125.614 239.713L126.477 238.802C127.745 237.476 128.915 236.451 131.067 236.53C133.372 236.615 135.681 237.153 137.971 237.427C140.565 237.736 143.159 238 145.761 238.228C145.882 238.239 145.902 238.046 145.789 238.018L142.875 237.286M133.307 227.438L133.006 227.407C130.353 227.147 127.927 227.137 125.558 228.578L125.104 228.856C122.968 230.166 120.643 231.711 119.307 233.833C119.089 234.181 119.45 234.589 119.815 234.501C122.383 233.879 124.259 231.977 126.418 230.554C128.841 228.956 131.344 229.22 134.107 229.468C136.782 229.708 139.455 230.038 142.104 230.488C144.593 230.911 147.089 231.578 149.603 231.791L149.603 231.786C149.89 231.785 150.054 231.35 149.761 231.202C147.21 229.916 144.255 229.307 141.48 228.72M52.7215 200.965C52.978 199.727 51.4694 199.153 50.7702 200.135L50.6215 200.342C49.1109 202.431 46.9262 205.053 47.0375 207.711C45.7096 207.74 44.333 208.555 43.8156 209.765C43.5764 210.324 43.4954 210.988 43.5482 211.674C42.3412 211.769 41.025 212.569 40.2871 213.348C39.064 214.639 38.9674 216.464 39.8448 217.973C41.7579 221.262 45.9371 222.459 49.4652 222.726L49.5909 222.735C53.2349 222.989 58.4858 222.921 60.9844 219.764C63.3947 216.719 60.7309 214.254 57.9992 212.915C58.7103 212.26 59.0786 211.32 58.7323 210.328C58.1243 208.586 55.9778 207.913 54.765 206.701C53.2864 205.224 52.3093 203.199 52.6989 201.081M50.7188 203.643C51.1206 205.406 52.1079 207.019 53.4829 208.297C54.0087 208.785 54.5839 209.22 55.195 209.594L55.2685 209.637C55.8109 209.945 57.1439 210.521 57.0414 211.21C56.9357 211.919 54.7638 213.029 54.1719 213.029C54.0372 213.029 53.961 213.242 54.0985 213.303C55.1713 213.782 56.1083 213.987 57.1574 213.481C57.8583 214.204 58.5392 214.951 59.2135 215.692C60.4061 217.004 59.998 218.388 58.5889 219.365C56.3246 220.933 52.8828 220.895 50.241 220.781C47.5819 220.666 44.7396 220.068 42.6626 218.279L42.5721 218.2C41.4433 217.186 40.4122 215.468 42.141 214.492C42.8179 214.11 43.5493 214.132 44.1921 213.946C44.7936 215.137 45.7692 216.09 46.9598 216.274C47.922 216.423 48.5847 215.202 47.7094 214.618L47.5127 214.494C46.4137 213.786 45.4758 212.695 45.5007 211.275C45.5176 210.288 46.8817 209.043 47.7703 209.969L47.811 210.014C48.5545 210.86 49.8643 209.794 49.3752 208.856L49.3517 208.813M224.144 154.606C224.147 154.394 223.852 154.315 223.749 154.499C222.023 157.565 221.121 161.323 220.201 164.701C219.238 168.239 218.461 171.814 217.762 175.414C216.348 182.705 215.594 189.954 215.543 197.385C215.536 198.446 217.248 198.729 217.415 197.642C218.527 190.413 219.592 183.177 220.712 175.951C221.276 172.317 221.932 168.696 222.56 165.072M207.056 159.947C207.183 159.524 206.574 159.382 206.418 159.769C202.954 168.354 201.781 178.083 204.005 187.14C204.345 188.526 206.355 187.926 206.098 186.558M162.376 152.318C162.394 152.002 161.987 151.952 161.834 152.17C160.192 154.505 159.511 157.632 156.632 158.838C155.194 159.441 153.576 159.336 152.306 160.354C151.457 161.034 150.806 162.109 151.443 163.139C151.649 163.472 152.224 163.639 152.503 163.277C152.91 162.75 153.126 162.119 153.679 161.724C154.459 161.166 155.512 161.132 156.406 160.87C157.564 160.531 158.584 159.938 159.419 159.057M134.956 113.374C134.787 113.287 134.625 113.343 134.517 113.491C134.362 113.701 134.381 113.906 134.57 114.05C134.317 114.572 134.019 115.878 133.976 116.068C133.803 116.839 133.62 117.606 133.427 118.371C133.039 119.916 132.699 121.472 132.311 123.018C131.899 124.655 131.409 126.276 130.863 127.873C130.828 127.976 130.789 128.082 130.748 128.189L130.686 128.351L130.671 128.326C130.56 128.149 130.329 128.273 130.356 128.46C130.382 128.63 130.416 128.8 130.445 128.971L130.387 129.123C130.03 130.094 129.786 131.116 130.441 131.972C130.686 132.292 130.956 132.482 131.292 132.538C131.831 134.332 132.507 136.092 133.231 137.782L133.443 138.276C134.507 140.742 135.643 143.176 137.338 145.276C139.189 147.568 141.735 149.134 143.347 151.645C144.097 152.814 144.619 154.043 145.042 155.362L145.202 155.863C145.502 156.796 145.849 157.701 146.716 158.249C146.993 158.423 147.408 158.367 147.631 158.129C149.409 156.23 147.547 152.684 146.475 150.845C144.985 148.288 142.827 146.652 140.667 144.723C138.339 142.643 136.854 139.862 135.417 137.121C134.537 135.442 133.688 133.727 132.794 132.041C133.728 131.207 134.027 129.551 134.344 128.4L134.373 128.297C134.896 126.453 135.311 124.561 135.574 122.661C135.827 120.835 135.932 119.034 135.865 117.197L135.846 116.729M131.482 122.068C131.689 121.783 131.347 121.459 131.064 121.519C129.341 121.878 127.658 122.931 126.112 123.782L125.947 123.872C124.713 124.544 123.472 125.367 122.824 126.672C122.12 128.09 122.178 129.724 122.274 131.265L122.283 131.409C122.401 133.258 122.419 135.179 122.807 136.994C123.005 137.923 123.838 138.184 124.551 137.965C125.399 140.668 127.78 142.659 129.52 144.792C131.738 147.511 131.32 151.182 131.088 154.457C130.995 155.782 132.628 156.159 133.469 155.452L135.408 153.826C135.731 153.555 136.053 153.283 136.375 153.01C136.65 152.776 136.923 152.54 137.194 152.301L137.598 151.941C137.778 151.779 138.569 150.887 138.8 150.85C139.36 150.76 140.691 152.25 141.146 152.718L141.204 152.776C142.062 153.625 142.836 154.538 143.558 155.507C143.69 155.685 143.95 155.537 143.855 155.332C143.209 153.933 142.457 152.596 141.564 151.345L141.384 151.096C140.79 150.288 139.993 148.861 138.944 148.622C137.664 148.331 136.386 149.627 135.455 150.347L135.396 150.392C134.953 150.727 134.515 151.069 134.078 151.413C134.124 148.975 133.819 146.511 132.572 144.41C131.693 142.928 130.376 141.831 129.249 140.557C127.994 139.139 127.339 137.397 126.203 135.92C126.057 135.73 125.855 135.628 125.637 135.595C125.593 134.408 125.42 133.209 125.286 132.035L125.247 131.683C125.112 130.407 124.792 128.849 125.411 127.654C125.996 126.525 127.337 125.728 128.33 124.963L129.141 124.328M187.372 108.577C187.891 108.879 188.375 109.256 188.815 109.727C190.199 111.209 191.189 113.054 192.152 114.829C192.67 115.784 193.17 116.751 193.693 117.704C193.92 118.119 194.154 118.529 194.39 118.939C194.5 119.128 194.824 119.503 194.985 119.734C194.806 119.987 194.621 120.236 194.433 120.483C194.361 120.577 189.396 126.038 187.666 128.175C185.016 131.448 182.647 134.906 180.622 138.607C178.639 142.231 177.129 146.069 175.292 149.763C174.373 151.613 173.346 153.449 172.037 155.05C171.986 155.112 171.933 155.171 171.881 155.233C171.382 153.87 170.102 152.411 169.473 151.574L169.414 151.495C167.988 149.554 166.483 147.672 164.944 145.822C163.539 144.132 162.098 142.479 160.622 140.853L160.067 140.245C159.039 139.124 157.733 137.446 156.228 136.644C156.389 136.354 156.576 136.067 156.79 135.784C158.201 133.923 160.194 132.573 162.161 131.354L163.437 130.571C168.246 127.612 172.979 124.516 177.154 120.672C179.363 118.638 181.541 116.507 183.397 114.134L184.054 113.295M179.349 107.112C181.601 107.303 184.033 107.257 186.114 107.998C184.264 109.764 182.505 111.67 180.699 113.466C180.538 112.252 180.209 111.052 179.931 109.868" fill="black"/>
<path fill-rule="evenodd" clip-rule="evenodd" d="M107.843 65.3357C108.429 60.165 107.671 49.357 107.62 48.7004C107.299 44.5493 109.235 28.1573 112.896 29.6677C119.036 24.785 127.214 23.7069 134.862 23.1919C150.747 22.1219 167.645 24.5781 179.911 35.316C185.977 40.8925 191.883 49.003 191.408 57.4479C196.919 65.4527 204.689 76.4331 197.822 85.7913C195.488 88.7812 191.778 89.8946 188.846 92.1589C182.948 96.9374 179.248 103.795 173.294 108.545C157.52 122.783 130.735 125.757 115.237 109.563C103.253 97.8343 105.191 80.2879 107.299 65.3357C108.716 55.2833 106.7 75.4234 107.843 65.3357Z" fill="#E3AB85"/>
<path fill-rule="evenodd" clip-rule="evenodd" d="M156.082 1.26422C151.834 0.403107 147.471 -0.132695 143.133 0.0285921L142.798 0.0416415C139.534 0.172684 135.4 0.462565 132.553 2.36917C132.389 2.20406 132.125 2.11932 131.886 2.23386C128.503 3.8563 124.781 5.02932 121.218 6.19497C117.671 7.35487 113.991 8.12058 110.274 8.42921C108.875 8.54539 107.679 10.0623 108.564 11.4229C108.775 11.7471 108.98 12.0746 109.184 12.4029C108.843 12.3671 108.501 12.3302 108.159 12.2955C107.034 12.1817 105.91 13.3876 105.977 14.4876C106.019 15.1795 106.093 15.8632 106.203 16.5387C105.775 16.5297 105.349 16.5942 104.937 16.7689C102.854 17.6527 102.999 20.1455 103.155 22.0421C103.371 24.6741 104.351 27.462 106.17 29.4318C104.812 30.8493 103.85 32.542 103.276 34.5523C102.86 36.0203 102.628 37.584 102.743 39.1121L102.779 39.5696C102.921 41.2279 103.202 43.0639 104.389 44.2569C104.999 44.872 105.75 45.0961 106.466 45.0251C106.033 48.8468 105.756 52.6903 105.494 56.5202L105.372 58.3507C104.789 67.2024 104.351 76.1117 104.466 84.9779C104.572 93.2637 106.202 101.306 111.261 108.034C115.869 114.16 122.485 118.676 129.969 120.393C134.002 121.32 138.12 121.385 142.202 120.795C144.181 120.508 146.173 120.067 148.051 119.373C150.13 118.602 151.624 117.468 153.023 115.767C153.684 114.961 153.366 113.244 152.049 113.405C150.056 113.648 148.237 113.941 146.327 114.533L146.053 114.619C144.151 115.232 142.18 115.688 140.191 115.882C136.117 116.279 131.98 115.879 128.077 114.638C121.723 112.615 116.25 108.108 112.742 102.443C108.578 95.7295 108.107 88.108 108.167 80.388C108.232 71.9168 108.506 63.4406 108.954 54.9781L109.03 53.5678C109.267 49.2131 109.495 44.8556 109.696 40.4981C109.759 39.1312 109.854 37.7535 110.026 36.3894C111.596 35.4654 113.003 34.1915 113.92 32.6196C115.763 33.385 117.7 33.9372 119.483 34.3774C123.613 35.3976 127.9 35.6452 132.104 35.0064C133.237 35.4768 134.394 35.8905 135.568 36.2464C135.885 36.3877 136.203 36.5266 136.52 36.6627C139.35 37.8792 142.221 38.9098 145.209 39.6643L145.943 39.8482C147.516 40.2375 149.224 40.621 150.897 40.7414C151.172 40.848 151.469 40.9382 151.793 41.0175C153.317 41.3893 154.898 41.5068 156.46 41.3756C157.982 41.2471 159.081 39.7026 158.243 38.2565C157.631 37.2013 157.013 36.1488 156.389 35.099C158.558 36.0066 160.798 36.7611 163.057 37.4008C165.338 38.046 167.651 38.59 169.967 39.0902C171.206 39.3554 172.449 39.5905 173.685 39.8557C174.569 40.0443 175.927 40.1427 176.649 40.7277C177.446 41.3701 177.672 42.8682 177.974 43.7922C178.371 44.9923 178.744 46.1978 179.084 47.417C179.762 49.85 180.317 52.3185 180.747 54.8117C181.177 57.3075 181.466 59.828 181.626 62.3566C181.787 64.8826 181.716 67.4249 181.974 69.9399C182.113 71.2739 183.539 71.9601 184.592 71.0279C184.716 70.9185 184.841 70.808 184.964 70.6962L185.148 70.5276C186.049 69.7075 186.922 68.8382 187.643 67.8595C187.774 67.6791 187.899 67.4905 188.016 67.2991C188.035 67.2991 188.052 67.2937 188.071 67.28L188.27 67.1289C190.472 65.4833 194.149 63.3378 196.295 66.0717C196.979 66.9426 197.329 68.0516 197.62 69.1215L198.13 71.0363C198.459 72.2863 198.77 73.5432 198.951 74.8222C199.362 77.6871 199.156 80.9894 197.193 83.2857C196.409 84.2042 195.329 84.8603 194.124 85.0326C193.451 85.1255 192.787 85.0107 192.12 84.9259C191.443 84.8412 190.79 84.9779 190.112 84.9123C189.034 84.8057 188.563 86.1014 188.966 86.9161C189.184 87.3535 189.44 87.7307 189.731 88.0506C189.497 88.2528 189.273 88.4715 189.058 88.7012C188.422 88.9062 187.85 89.3463 187.423 89.9286C187.077 90.3988 186.898 90.91 186.868 91.4485C186.83 91.5825 186.797 91.7192 186.767 91.8586L186.183 92.8104C186.055 93.0192 185.927 93.2254 185.798 93.4277C184.312 95.7787 182.663 97.7688 180.614 99.6441C178.641 101.448 176.499 103.064 174.645 104.999L174.427 105.229C172.699 107.058 170.877 109.272 171.554 111.932C171.728 112.615 172.678 113.108 173.298 112.646C175.293 111.158 176.298 108.802 177.99 106.998C179.732 105.139 181.662 103.469 183.409 101.615C185.061 99.8655 186.364 97.8836 187.347 95.7021C187.739 96.1368 188.31 96.4457 189.102 96.566C190.463 96.771 191.731 95.97 192.324 94.7863C192.706 94.9558 193.094 95.1089 193.487 95.2292C195.55 95.8634 196.847 93.5589 196.069 91.8558C195.653 90.9428 195.133 90.15 194.488 89.483C196.505 89.2042 198.557 88.1572 199.882 86.8505C203.208 83.5673 203.665 78.633 202.916 74.2454C202.519 71.9191 201.834 69.5654 200.943 67.3811C200.789 67.0012 200.622 66.6185 200.44 66.2412C200.541 66.2385 200.644 66.1947 200.71 66.11C201.311 65.2844 202.043 64.6092 202.489 63.6852C202.9 62.8378 203.357 61.9794 203.681 61.0964C204.348 59.2894 204.675 57.2501 204.892 55.3393C205.341 51.4274 205.167 47.5401 204.571 43.6528C203.556 37.0318 201.105 30.6956 197.493 25.1359C197.69 25.0321 197.878 24.9068 198.054 24.7586L198.14 24.6826L198.281 24.5547C199.312 23.6178 199.223 21.862 198.281 20.9131L197.984 20.6137C197.607 20.2379 197.283 19.9402 196.674 19.531C196.585 19.4706 196.493 19.4137 196.4 19.3607C196.718 18.7697 196.829 18.0786 196.607 17.3161C195.834 14.6601 192.03 14.7541 189.618 15.9124C186.95 13.5207 183.992 11.4445 180.785 9.76325C173.148 5.76113 164.513 2.97004 156.082 1.26422ZM195.557 71.2192C194.131 70.7518 192.237 71.7332 190.955 72.3237C189.331 73.0727 187.948 74.1798 186.609 75.3498C185.942 75.9349 185.823 76.8916 185.989 77.709C186.005 77.791 186.021 77.8758 186.041 77.9605C186.217 78.8326 187.186 79.5187 188.044 79.4941C189.837 79.4449 190.691 77.8894 191.707 76.5718C191.826 76.785 191.976 76.9819 192.161 77.1295L192.286 77.2279C192.708 77.5501 193.172 77.8077 193.729 77.7828C194.123 77.7637 194.501 77.6625 194.85 77.4794C195.721 77.0174 196.104 75.8856 195.868 74.9644C195.721 74.3849 195.383 73.9311 194.943 73.6167L195.107 73.5038C195.459 73.258 195.779 72.9988 196.029 72.6164L196.086 72.5259H196.064C196.336 72.0558 196.159 71.4161 195.557 71.2192Z" fill="black"/>
<path fill-rule="evenodd" clip-rule="evenodd" d="M127.27 102.262C129.334 102.867 131.55 102.921 133.655 102.297C135.564 101.73 137.524 100.484 138.929 98.8355C140.177 97.3708 140.985 95.5909 140.954 93.6909C140.95 93.4739 140.873 93.2928 140.755 93.1522C140.628 93.0008 140.45 92.8969 140.26 92.8518C140.065 92.8054 139.858 92.8219 139.682 92.9027C139.522 92.9759 139.386 93.1002 139.3 93.2819C139.084 93.5686 138.869 93.851 138.653 94.1256C136.917 96.2921 135.236 97.9113 132.626 98.492C131.209 98.8072 129.795 98.6674 128.497 98.1866C127.107 97.6719 125.851 96.7669 124.867 95.6088C124.422 95.0854 123.897 94.8718 123.384 94.8682C122.802 94.8642 122.227 95.1374 121.794 95.5742C121.368 96.0035 121.083 96.5869 121.057 97.1972C121.034 97.7328 121.207 98.2923 121.667 98.7915C123.182 100.436 125.145 101.64 127.27 102.262ZM127.333 75.1267C125.217 76.427 121.992 79.4589 124.269 82.6824C126.949 85.5246 130.808 82.2658 132.709 80.792C134.472 79.6497 136.453 82.5875 134.817 83.9212C121.077 94.2028 115.501 75.4667 126.263 73.5979C127.448 73.392 127.888 74.7245 127.333 75.1267ZM147.132 69.4054C147.812 68.9657 148.612 68.8147 149.499 69.2225C150.192 69.5411 151.408 70.6029 152.254 71.9988C152.832 72.9538 153.243 74.0741 153.157 75.2411C153.137 75.5121 153.237 75.7119 153.393 75.8597C153.516 75.9764 153.695 76.0621 153.904 76.0889C154.082 76.1117 154.281 76.0912 154.443 76.0401C154.75 75.943 154.913 75.7412 154.975 75.5765C155.567 73.9867 155.312 72.2126 154.648 70.6121C153.752 68.452 152.125 66.6428 151.059 66.0594C149.235 65.0609 147.084 65.0149 145.257 66.0322C143.702 66.898 142.73 68.2959 141.763 69.7207C141.558 70.0236 141.354 70.3243 141.143 70.6197C140.72 71.2116 140.678 71.7986 140.842 72.302C141.023 72.8596 141.485 73.3303 142.063 73.5766C142.598 73.8042 143.218 73.8363 143.766 73.6024C144.23 73.4048 144.655 73.0196 144.924 72.3661C145.378 71.2654 146.133 70.0511 147.132 69.4054ZM112.583 71.8541C113.049 72.0994 113.414 72.1734 113.93 72.0169C114.216 71.9301 114.499 71.7639 114.72 71.5404C114.939 71.3189 115.097 71.0434 115.159 70.7378C115.31 69.9836 115.718 69.2777 116.3 68.8175C116.797 68.4241 117.425 68.2156 118.121 68.3332C118.872 68.46 119.588 68.947 120.081 69.5211C120.246 69.7132 120.375 69.9314 120.505 70.1481C120.748 70.5534 120.984 70.9301 121.319 71.2278C121.446 71.341 121.637 71.4194 121.822 71.4194C121.898 71.4194 121.974 71.407 122.047 71.3841C122.795 70.6256 122.938 70.0501 122.914 69.4794C122.889 68.8809 122.656 68.2749 122.278 67.7095C121.393 66.3832 119.713 65.2958 118.579 65.0495C117.026 64.7122 115.484 65.1171 114.248 65.9937C112.975 66.8956 112.033 68.296 111.739 69.8742C111.668 70.2543 111.698 70.6645 111.841 71.0203C111.981 71.3678 112.225 71.6655 112.583 71.8541ZM143.707 55.2649C144.639 56.1826 145.742 56.3247 146.858 56.4512C147.478 56.5221 147.973 56.5792 148.46 56.6903C149.799 56.9957 151.122 57.4557 152.329 58.1182C153.591 58.8108 154.966 59.646 155.956 60.7159C156.191 60.9705 156.413 61.2377 156.635 61.5055C156.837 61.7496 157.033 61.9847 157.238 62.2113C157.474 62.4716 157.698 62.7444 157.921 63.0165C158.059 63.2462 158.087 63.3026 158.114 63.3614C158.156 63.4498 158.205 63.5486 158.26 63.6547C158.336 63.7999 158.425 63.9589 158.519 64.1031C158.674 64.3666 158.757 64.4392 158.829 64.4716C158.949 64.5254 159.062 64.5518 159.172 64.5375C159.275 64.5241 159.372 64.4741 159.468 64.3922C159.946 63.9836 160.087 63.3131 160.073 62.6014C160.051 61.5213 159.657 60.3255 159.293 59.5904C158.448 57.8823 157.277 56.1067 155.868 54.8318C154.26 53.3767 152.501 52.275 150.481 51.5159C149.226 51.044 147.772 50.6108 146.404 50.6655C145.42 50.7049 144.48 51.0007 143.704 51.7394C143.227 52.1928 142.998 52.8378 142.998 53.4823C142.998 54.1397 143.236 54.8009 143.707 55.2649ZM110.688 63.6683C110.747 63.7665 110.829 63.8341 110.921 63.8748C111.016 63.9174 111.123 63.9296 111.226 63.9122C111.328 63.8948 111.425 63.848 111.502 63.7766C111.575 63.7081 111.632 63.6173 111.657 63.506C112.275 60.7595 113.477 58.716 116.041 57.3983C117.302 56.75 118.753 56.3382 120.126 56.0098C120.525 55.9144 120.947 55.8525 121.371 55.7899C122.702 55.5935 124.042 55.3686 124.91 54.2814C125.432 53.6266 125.652 52.7891 125.528 52.0232C125.411 51.302 124.994 50.6407 124.236 50.2445C122.349 49.2584 120.004 50.226 118.099 51.0503C117.957 51.1114 117.819 51.1714 117.683 51.2293C115.819 52.0243 114.12 53.0737 112.723 54.5744C111.614 55.765 110.587 57.5251 110.173 59.3357C109.829 60.842 109.91 62.3798 110.688 63.6683Z" fill="black"/>
</svg>
