<svg width="87" height="120" viewBox="0 0 87 120" fill="none" xmlns="http://www.w3.org/2000/svg">
<g clip-path="url(#clip0_84_755)">
<path d="M86.9736 73.8267V105.12C86.9683 109.065 85.4121 112.847 82.6463 115.636C79.8804 118.425 76.1306 119.995 72.2191 120H32.4705C25.4614 119.988 18.743 117.174 13.7868 112.176C8.8307 107.178 6.04095 100.402 6.02872 93.3334V84.9067L21.2327 66.6267V16.3667C21.2345 13.6372 22.309 11.0197 24.2209 9.08782C26.1328 7.1559 28.7262 6.06712 31.4326 6.06006H31.6177C34.3253 6.06535 36.9204 7.15336 38.8337 9.08547C40.747 11.0176 41.8225 13.6361 41.8243 16.3667V41.7601L68.0082 10.2934C68.8694 9.25629 69.9251 8.4008 71.1148 7.77596C72.3044 7.15113 73.6047 6.76924 74.941 6.65218C76.2773 6.53513 77.6234 6.68521 78.9021 7.09383C80.1808 7.50245 81.3669 8.16156 82.3925 9.03339L82.5313 9.14673C84.6011 10.9038 85.8957 13.4168 86.1311 16.1349C86.3665 18.853 85.5237 21.5544 83.7873 23.6467L60.9416 51.1601C62.4069 50.8958 63.9118 50.9595 65.3499 51.3466C66.7881 51.7336 68.1243 52.4347 69.2642 53.4001L69.4096 53.5201C70.8288 54.725 71.8964 56.2963 72.4984 58.0659C73.1004 59.8356 73.214 61.737 72.8272 63.5667C74.545 62.8611 76.4211 62.6416 78.2534 62.9318C80.0857 63.222 81.8048 64.0108 83.2254 65.2134L83.3643 65.3267C84.394 66.1952 85.2427 67.2611 85.8611 68.4626C86.4795 69.6642 86.8554 70.9776 86.9669 72.3267C87.0022 72.826 87.0044 73.3271 86.9736 73.8267Z" fill="black"/>
<path d="M79.7616 67.92V99.0534C79.7598 102.685 78.3287 106.166 75.7828 108.734C73.2368 111.302 69.7843 112.745 66.1837 112.747H26.4418C19.7387 112.745 13.3107 110.058 8.57156 105.278C3.83238 100.497 1.17005 94.0135 1.17005 87.2534V79.2534L16.3741 60.9667V10.3C16.3732 9.10388 16.6062 7.91929 17.0596 6.81402C17.5131 5.70875 18.1782 4.70449 19.0169 3.85869C19.8556 3.01288 20.8514 2.34212 21.9473 1.88478C23.0433 1.42744 24.2179 1.19249 25.4039 1.19336H25.5824C26.7685 1.19249 27.9431 1.42744 29.039 1.88478C30.135 2.34212 31.1307 3.01288 31.9694 3.85869C32.8081 4.70449 33.4732 5.70875 33.9267 6.81402C34.3802 7.91929 34.6131 9.10388 34.6123 10.3V38.9667L62.8917 4.9667C63.6536 4.05046 64.587 3.29463 65.6387 2.74241C66.6904 2.1902 67.8396 1.85243 69.0208 1.74842C70.202 1.6444 71.3919 1.77618 72.5226 2.13621C73.6532 2.49625 74.7024 3.07749 75.6102 3.8467L75.7424 3.9667C76.6509 4.73503 77.4004 5.67641 77.9479 6.73703C78.4955 7.79764 78.8304 8.95669 78.9336 10.1479C79.0367 11.3391 78.906 12.5392 78.549 13.6795C78.192 14.8197 77.6157 15.8779 76.853 16.7934L50.2393 48.82C51.8331 47.1966 53.9737 46.2365 56.2365 46.1303C58.4993 46.0241 60.7191 46.7795 62.4554 48.2467L62.5943 48.3667C64.425 49.9173 65.5719 52.1363 65.7838 54.5379C65.9957 56.9395 65.2552 59.3279 63.7246 61.18C64.4846 60.2651 65.4161 59.5104 66.4658 58.9592C67.5154 58.4079 68.6626 58.0709 69.8416 57.9675C71.0206 57.8641 72.2083 57.9963 73.3365 58.3565C74.4648 58.7167 75.5115 59.2979 76.4167 60.0667L76.5489 60.1867C77.6621 61.1197 78.5356 62.31 79.0949 63.6563C79.6542 65.0027 79.8829 66.4654 79.7616 67.92Z" fill="#A259FF"/>
<path d="M80.9514 66.26C80.84 64.9111 80.4635 63.5981 79.8438 62.3974C79.2242 61.1968 78.3738 60.1325 77.3421 59.2667L77.2033 59.1467C76.1799 58.2746 74.9949 57.6164 73.7171 57.2101C72.4393 56.8038 71.0942 56.6576 69.76 56.78C68.7427 56.8694 67.7444 57.1121 66.7985 57.5C67.1876 55.6715 67.0763 53.7706 66.4767 52.0009C65.877 50.2312 64.8115 48.6593 63.3941 47.4533L63.2553 47.3333C62.1121 46.3692 60.7734 45.6691 59.3334 45.2822C57.8934 44.8952 56.3869 44.8308 54.9195 45.0933L77.7718 17.5867C79.5086 15.4932 80.3516 12.7908 80.1162 10.0716C79.8807 7.3524 78.5861 4.83822 76.5158 3.08L76.377 2.96C74.3007 1.20548 71.6187 0.35406 68.9202 0.592823C66.2218 0.831585 63.7277 2.141 61.9861 4.23333L35.8088 35.7V10.3C35.807 7.56997 34.7313 4.95216 32.8178 3.0211C30.9043 1.09005 28.3092 0.00353117 25.6022 0L25.4171 0C22.7095 0.00352797 20.1138 1.08984 18.1992 3.0207C16.2847 4.95156 15.2075 7.56935 15.204 10.3V60.56L0 78.84L0 87.2533C0.0122337 94.322 2.80198 101.098 7.75812 106.096C12.7143 111.094 19.4327 113.908 26.4418 113.92H66.1837C70.0958 113.916 73.8466 112.348 76.6129 109.558C79.3791 106.768 80.9347 102.985 80.9382 99.04V67.7667C80.9823 67.2656 80.9867 66.7618 80.9514 66.26ZM64.6633 61.9467C65.9985 60.3446 67.9095 59.3423 69.9768 59.1598C72.044 58.9773 74.0986 59.6296 75.6895 60.9733L75.8283 61.0933C76.6193 61.7594 77.271 62.5775 77.7454 63.5C78.2197 64.4225 78.5074 65.431 78.5915 66.4667C78.5915 66.6067 78.5915 66.74 78.5915 66.88V67.7267C78.4757 69.3855 77.8389 70.964 76.7736 72.2333L68.7486 81.82C68.0179 82.6934 67.1069 83.3952 66.0793 83.8766C65.0517 84.3579 63.9322 84.6071 62.7992 84.6067H62.5612C61.1213 84.6098 59.7087 84.21 58.4807 83.4515C57.2528 82.6931 56.2576 81.6059 55.606 80.3109C54.9543 79.0159 54.6718 77.564 54.7899 76.1167C54.908 74.6694 55.422 73.2835 56.2747 72.1133L64.6501 61.96L64.6633 61.9467ZM61.7283 49.1667L61.8671 49.28C63.4579 50.6292 64.4535 52.5593 64.6356 54.6475C64.8178 56.7356 64.1716 58.8115 62.8388 60.42L54.7477 70.1467C54.5626 70.3733 54.3907 70.6 54.2254 70.8133L51.2772 74.38C50.9862 73.1883 50.3263 72.1211 49.3932 71.3333L39.8345 63.2533L51.1384 49.6467C52.5243 48.2457 54.3805 47.4193 56.3408 47.3305C58.3011 47.2416 60.2233 47.8967 61.7283 49.1667ZM17.5772 10.3C17.5789 8.20295 18.4053 6.19219 19.875 4.70873C21.3447 3.22527 23.3378 2.3902 25.4171 2.38667H25.6022C27.6816 2.3902 29.6747 3.22527 31.1444 4.70873C32.6141 6.19219 33.4405 8.20295 33.4422 10.3V42.26L63.804 5.76667C64.4648 4.96973 65.2752 4.3122 66.1886 3.83179C67.1019 3.35137 68.1004 3.05753 69.1266 2.9671C70.1528 2.87667 71.1867 2.99144 72.1688 3.30483C73.151 3.61822 74.0621 4.12405 74.85 4.79333L74.9888 4.90667C76.5806 6.25696 77.5762 8.18896 77.7571 10.2787C77.9381 12.3685 77.2896 14.4452 75.9539 16.0533L49.3337 48.1C49.1751 48.2667 49.0164 48.4267 48.8644 48.6067L38.0232 61.72L28.4976 53.6533C27.3212 52.6639 25.8043 52.1842 24.2783 52.3191C22.7523 52.4541 21.3413 53.1926 20.3535 54.3733L17.5772 57.7067V10.3ZM78.5915 99.0533C78.5863 102.365 77.2794 105.54 74.9574 107.882C72.6353 110.223 69.4874 111.541 66.2036 111.547H26.4418C20.0581 111.534 13.9396 108.97 9.42686 104.417C4.91415 99.8633 2.37527 93.6913 2.36654 87.2533V79.7067L22.1979 55.9133C22.78 55.2155 23.6126 54.7788 24.5134 54.6988C25.4141 54.6188 26.3096 54.9021 27.0036 55.4867L47.8992 73.1667C48.5912 73.7537 49.0242 74.5934 49.1035 75.5019C49.1828 76.4103 48.9019 77.3134 48.3223 78.0133L48.2562 78.0933L48.2033 78.1533C46.1107 80.6683 43.1133 82.2419 39.8704 82.5282C36.6274 82.8145 33.4044 81.79 30.9104 79.68L26.3492 75.8133L25.5824 76.7333L25.3973 76.96L25.0403 77.3867L18.6414 85.0333L20.4593 86.5667L26.607 79.18L29.357 81.5067C32.3318 84.0241 36.1761 85.2472 40.0448 84.9071C43.9135 84.5671 47.49 82.6918 49.9881 79.6933L50.1005 79.5467L52.3415 76.84C52.3779 79.5434 53.4661 82.1241 55.3716 84.0259C57.2771 85.9277 59.8473 86.9982 62.5281 87.0067H62.7992C64.2771 87.0011 65.7358 86.6694 67.0731 86.0348C68.4103 85.4002 69.5937 84.4782 70.54 83.3333L78.5783 73.7467L78.5915 99.0533Z" fill="black"/>
</g>
<defs>
<clipPath id="clip0_84_755">
<rect width="87" height="120" fill="white"/>
</clipPath>
</defs>
</svg>
