<svg width="60" height="60" viewBox="0 0 60 60" fill="none" xmlns="http://www.w3.org/2000/svg">
<path d="M29.1354 29.5726C29.2604 29.0726 29.3334 28.6664 29.4688 28.2705C30.8229 24.2705 33 20.708 35.4792 17.3226C35.7709 16.9268 36.1354 16.5518 36.5417 16.3018C36.7604 16.1663 37.1979 16.1872 37.4479 16.3226C37.6354 16.4268 37.7709 16.833 37.7292 17.0622C37.6563 17.4997 37.5 17.9476 37.2813 18.3434C35.8438 20.958 34.3959 23.5622 32.9271 26.1559C32.375 27.1247 31.7917 28.083 31.2188 29.0414C31.0313 29.3643 30.8229 29.6768 30.6042 29.9684C30.3646 30.3018 30 30.4997 29.6354 30.2809C29.3959 30.1351 29.1354 30.0309 29.1354 29.5726Z" fill="black"/>
<path d="M43.8854 45.0834C43.3854 45 42.8021 44.9375 42.2396 44.8125C40.0209 44.3125 37.8021 43.8125 35.5938 43.2917C35.1146 43.1771 34.6459 42.9792 34.2188 42.75C33.6459 42.4479 33.4479 42.0209 33.5417 41.5521C33.6354 41.0834 34.0104 40.7917 34.6667 40.7813C35.1146 40.7709 35.5938 40.7813 36.0209 40.8854C38.8229 41.5938 41.625 42.3229 44.4167 43.0625C44.7292 43.1459 45.0521 43.2917 45.2917 43.5C45.8959 44.0104 45.7084 44.8125 44.9375 45.0104C44.6354 45.0834 44.2917 45.0521 43.8854 45.0834Z" fill="black"/>
<path d="M14.6146 17.1561C14.6563 16.6665 14.7604 16.1769 14.8854 15.6977C15 15.2707 15.2917 14.9686 15.7604 14.9269C16.1563 14.8957 16.5833 15.2915 16.6458 15.8123C16.7292 16.5103 16.8021 17.2186 16.7708 17.9165C16.6771 20.0207 16.5417 22.1353 16.3958 24.2394C16.3438 24.9373 16.25 25.6353 16.1354 26.3332C16.0938 26.5728 16.0104 26.8228 15.875 27.0103C15.5104 27.5415 14.8438 27.4998 14.5833 26.9269C14.4375 26.604 14.375 26.2082 14.375 25.854C14.3229 24.6873 14.4792 18.8852 14.6146 17.1561Z" fill="black"/>
</svg>
