<?xml version="1.0" encoding="utf-8"?>
<!-- Generator: Adobe Illustrator 16.0.0, SVG Export Plug-In . SVG Version: 6.00 Build 0)  -->
<!DOCTYPE svg PUBLIC "-//W3C//DTD SVG 1.1//EN" "http://www.w3.org/Graphics/SVG/1.1/DTD/svg11.dtd">
<svg version="1.1" xmlns="http://www.w3.org/2000/svg" xmlns:xlink="http://www.w3.org/1999/xlink" x="0px" y="0px" width="512px"
	 height="512px" viewBox="0 0 512 512" enable-background="new 0 0 512 512" xml:space="preserve">
<g id="Layer_1">
	<g>
		<path d="M395.837,313.833l-9.731-73.657c-0.12-0.865-0.329-1.811-0.612-2.668l-0.428-1.293l-25.261-76.324
			c-0.177-0.528-0.392-1.108-0.607-1.63c-4.984-12-86.54-42.732-97.354-41.155l-133.037,19.398
			c-7.348,1.063-12.935,7.448-12.805,15.067c0.143,8.265,6.957,14.849,15.221,14.706l107.767-1.848l-44.295,115.861l-54.117,79.14
			c-4.766,6.958-4.115,16.542,2.019,22.786c6.97,7.094,18.372,7.195,25.466,0.225l64.957-63.814l-13.498,46.399l-54.54,80.312
			c-5.035,7.475-3.81,17.775,3.217,23.753c7.55,6.425,18.877,5.512,25.302-2.037l66.124-77.707c0.946-1.123,1.79-2.455,2.392-3.877
			l1.047-2.472l67.891-170.07l15.07,36.286l12.991,70.446c1.804,9.68,10.903,16.409,20.78,15.104
			C390.004,333.413,397.187,324.042,395.837,313.833z"/>
		<circle cx="333.957" cy="83.377" r="44.742"/>
		<path d="M333.957,383.369c-24.813,0-45,20.187-45,45s20.188,45,45,45c24.813,0,45-20.187,45-45S358.771,383.369,333.957,383.369z
			 M365.618,442.132l-7.945-13.763l7.945-13.763h1.09c1.786,4.234,2.775,8.885,2.775,13.763s-0.989,9.528-2.775,13.763H365.618z
			 M346.592,395.173l-4.688,8.119h-15.893l-4.688-8.119c3.928-1.501,8.185-2.33,12.634-2.33
			C338.407,392.843,342.663,393.672,346.592,395.173z M349.851,428.369l-7.947,13.763h-15.893l-7.946-13.763l7.946-13.763h15.893
			L349.851,428.369z M301.207,414.606h1.09l7.945,13.763l-7.945,13.763h-1.09c-1.786-4.234-2.776-8.885-2.776-13.763
			S299.421,418.841,301.207,414.606z M321.323,461.565l4.688-8.119h15.893l4.688,8.119c-3.929,1.501-8.185,2.33-12.635,2.33
			C329.508,463.896,325.251,463.066,321.323,461.565z"/>
	</g>
</g>
<g id="Layer_2">
</g>
</svg>
