<?xml version="1.0" encoding="utf-8"?>
<!-- Generator: Adobe Illustrator 16.0.0, SVG Export Plug-In . SVG Version: 6.00 Build 0)  -->
<!DOCTYPE svg PUBLIC "-//W3C//DTD SVG 1.1//EN" "http://www.w3.org/Graphics/SVG/1.1/DTD/svg11.dtd">
<svg version="1.1" xmlns="http://www.w3.org/2000/svg" xmlns:xlink="http://www.w3.org/1999/xlink" x="0px" y="0px" width="512px"
	 height="512px" viewBox="0 0 512 512" enable-background="new 0 0 512 512" xml:space="preserve">
<g id="Layer_1">
	<g>
		<path d="M386.197,114.625c-8.412-3.81-18.317-0.078-22.126,8.331l-18.123,40.016c0,0-44.27,17.973-52.074,20.502
			c-15.133,4.902-33.125,3.368-60.825,10.715l-52.499,12.952l-36.863-27.521c6.94-12.046,18.646-32.375,21.573-37.514
			c3.167-5.563,10.288-13.085,13.889-16.727c7.55,1.135,15.516,0.132,23.289-2.929c12.257-4.825,22.913-14.338,30.005-26.791
			c7.085-12.447,9.828-26.466,7.721-39.475c-2.213-13.655-9.44-24.597-20.351-30.81c-6.019-3.425-12.655-5.163-19.721-5.163
			c-5.682,0-11.457,1.14-17.165,3.388c-12.263,4.828-22.918,14.342-30.003,26.789c-7.088,12.445-9.831,26.465-7.724,39.476
			c1.333,8.229,4.571,15.651,9.386,21.542c-1.241,4.85-3.99,14.627-7.312,20.461c-3.004,5.272-18.659,32.452-23.803,41.385
			l-0.351,0.606c-1.228,0.649-2.379,1.494-3.393,2.554c-5.121,5.344-4.945,13.831,0.402,18.956l45.766,43.875
			c3.274,3.097,7.945,4.764,12.746,4.022l2.108-0.326l45.438-7l12.762,94.067l-33.156,138.673
			c-1.743,9.216,3.386,18.608,12.487,21.922c10.117,3.685,21.305-1.529,24.989-11.646l47-115.054l18.374,38.834l-13.178,66.494
			c-2.051,10.775,6.527,19.628,16.88,21.263c10.945,1.727,20.455-5.738,22.942-16.689l18.893-72.782
			c0.48-3.111,0.211-6.465-0.97-9.623l-0.668-1.789l-18.589-49.742l-16.77-122.101l49.791-22.282l1.363-0.61
			c4.075-1.842,7.43-5.275,9.047-9.821l17.662-49.594C397.903,127.369,394.16,118.234,386.197,114.625z M166.998,58.404
			c7.604-13.356,20.569-21.987,33.031-21.987c4.271,0,8.23,1.022,11.769,3.034c14.161,8.064,17.106,29.685,6.565,48.197
			c-7.601,13.355-20.566,21.985-33.03,21.985c-4.271,0-8.231-1.021-11.767-3.035c-6.763-3.849-11.2-10.927-12.494-19.929
			C159.75,77.477,161.854,67.438,166.998,58.404z"/>
		<path d="M220.222,139.272c-2.545,21.723,13.005,41.388,34.728,43.93c21.721,2.542,41.39-13.008,43.931-34.73
			c2.54-21.72-13.011-41.389-34.732-43.929C242.427,102,222.759,117.55,220.222,139.272z"/>
		<circle cx="359.855" cy="76.496" r="14.961"/>
	</g>
</g>
<g id="Layer_2">
</g>
</svg>
