<?xml version="1.0" encoding="utf-8"?>
<!-- Generator: Adobe Illustrator 16.0.0, SVG Export Plug-In . SVG Version: 6.00 Build 0)  -->
<!DOCTYPE svg PUBLIC "-//W3C//DTD SVG 1.1//EN" "http://www.w3.org/Graphics/SVG/1.1/DTD/svg11.dtd">
<svg version="1.1" xmlns="http://www.w3.org/2000/svg" xmlns:xlink="http://www.w3.org/1999/xlink" x="0px" y="0px" width="512px"
	 height="512px" viewBox="0 0 512 512" enable-background="new 0 0 512 512" xml:space="preserve">
<g id="Layer_1">
	<g>
		<path d="M400.018,225.364c0,0-80.459-60.011-103.533-67.397c-23.076-7.387-56.027-3.25-75.99,1.893l-50.248,14.569l-39.168-43.037
			c-5.357-5.9-14.406-6.977-21.039-2.219c-7.139,5.122-8.775,15.062-3.652,22.2l42.162,58.771c3.906,5.422,10.68,8.488,17.717,7.313
			l2.701-0.451l48.316-8.067l7.773,88.783l-0.717,18.217l-97.037,47.348c-11.148,5.472-16.365,18.767-11.58,30.426
			c4.99,12.159,18.895,17.971,31.053,12.98l116.061-47.636c4.75-1.965,8.859-5.316,11.76-9.619l7.344,15.382l-62.809,57.327
			c-9.063,8.316-10.408,22.399-2.699,32.252c8.102,10.353,23.063,12.178,33.416,4.076l84.051-65.774
			c9.027-7.073,12.725-19.523,8.217-30.691l-0.713-1.768l-26.215-64.965l-6.697-76.497l70.439,40.156
			c8.846,5.008,20.281,2.554,26.16-5.975C411.311,243.939,409.039,231.584,400.018,225.364z"/>
		<circle cx="270.483" cy="98.467" r="49.995"/>
		<path d="M155.588,137.957c23.987,0,43.5-19.513,43.5-43.5c0-23.987-19.513-43.5-43.5-43.5s-43.5,19.513-43.5,43.5
			C112.088,118.443,131.601,137.957,155.588,137.957z M155.588,129.698c-4.349,0-8.515-0.798-12.366-2.246
			c0.205-1.102,0.42-2.212,0.666-3.354c6.829-6.466,16.571-6.464,23.4,0c0.246,1.142,0.462,2.252,0.666,3.354
			C164.103,128.899,159.937,129.698,155.588,129.698z M155.588,59.215c4.349,0,8.514,0.798,12.366,2.246
			c-0.205,1.1-0.42,2.209-0.666,3.349c-6.829,6.466-16.571,6.463-23.4,0c-0.245-1.14-0.46-2.25-0.665-3.349
			C147.074,60.013,151.24,59.215,155.588,59.215z M135.672,82.75c14.384-3.088,25.449-3.088,39.833,0
			c6.466,6.832,6.464,16.575,0,23.404c-14.384,3.091-25.449,3.092-39.833,0C129.205,99.325,129.207,89.583,135.672,82.75z"/>
	</g>
</g>
<g id="Layer_2">
</g>
</svg>
